<svg width="50" height="50" viewBox="0 0 50 50" fill="none" xmlns="http://www.w3.org/2000/svg">
<rect width="50" height="50" rx="7" fill="#6366F1" fill-opacity="0.2"/>
<path d="M18 24.8415C18 24.4963 18.2565 24.2111 18.5893 24.1659L18.6818 24.1597H32.318C32.6946 24.1597 32.9998 24.465 32.9998 24.8415C32.9998 25.1867 32.7433 25.4719 32.4105 25.5171L32.318 25.5233H18.6818C18.3053 25.5233 18 25.2181 18 24.8415Z" fill="#6366F1" stroke="#6366F1" stroke-width="0.5"/>
<path d="M26.3372 19.8478C26.0703 19.5821 26.0694 19.1504 26.3351 18.8836C26.5766 18.641 26.9554 18.6182 27.2227 18.8157L27.2993 18.8815L32.7993 24.3578C33.0426 24.6001 33.0647 24.9802 32.8656 25.2475L32.7993 25.3241L27.2994 30.8013C27.0326 31.067 26.6009 31.0661 26.3351 30.7993C26.0936 30.5567 26.0724 30.1779 26.271 29.9114L26.3371 29.8351L31.3517 24.8407L26.3372 19.8478Z" fill="#6366F1" stroke="#6366F1" stroke-width="0.5"/>
</svg>
