<svg width="50" height="50" viewBox="0 0 50 50" fill="none" xmlns="http://www.w3.org/2000/svg">
<rect x="50" y="50" width="50" height="50" rx="7" transform="rotate(-180 50 50)" fill="#6366F1"/>
<path d="M32 25.1585C32 25.5037 31.7435 25.7889 31.4107 25.8341L31.3182 25.8403L17.682 25.8403C17.3054 25.8403 17.0002 25.535 17.0002 25.1585C17.0002 24.8133 17.2567 24.5281 17.5895 24.4829L17.682 24.4767L31.3182 24.4767C31.6947 24.4767 32 24.7819 32 25.1585Z" fill="white" stroke="white" stroke-width="0.5"/>
<path d="M23.6628 30.1522C23.9297 30.4179 23.9306 30.8496 23.6649 31.1164C23.4234 31.359 23.0446 31.3818 22.7773 31.1843L22.7007 31.1185L17.2007 25.6422C16.9574 25.3999 16.9353 25.0198 17.1344 24.7525L17.2007 24.6759L22.7006 19.1987C22.9674 18.933 23.3991 18.9339 23.6649 19.2007C23.9064 19.4433 23.9276 19.8221 23.729 20.0886L23.6629 20.1649L18.6483 25.1593L23.6628 30.1522Z" fill="white" stroke="white" stroke-width="0.5"/>
</svg>
