<svg width="47" height="60" viewBox="0 0 47 60" fill="none" xmlns="http://www.w3.org/2000/svg">
<path d="M19.9087 0.435253C18.876 0.669945 15.872 1.74953 13.2434 2.82911C8.36184 4.84746 7.51695 5.64541 9.06592 6.91275C9.67611 7.42907 9.67611 7.7107 9.06592 9.07191C8.69041 10.0107 8.40878 12.2168 8.40878 14.2821C8.40878 17.1453 8.22103 18.0841 7.47001 19.0228C6.95369 19.68 6.53125 20.6187 6.53125 21.1351C6.53125 22.3085 8.59653 24.3269 9.81693 24.3269C10.4741 24.3269 10.7557 24.6554 10.7557 25.3595C10.7557 26.7677 13.2434 31.039 14.7455 32.2125C15.5434 32.8696 15.9189 33.6207 15.9189 34.6064C15.9189 35.8268 15.6373 36.2023 13.9475 37.0472C12.821 37.6104 11.5067 38.5492 10.9904 39.1124C10.4271 39.8165 8.73735 40.6145 6.67206 41.1777C4.13739 41.9287 3.01087 42.5389 1.88435 43.8063C0.100694 45.8246 -0.133997 47.1389 0.0537561 54.1327C0.147633 58.7796 0.335386 59.7653 0.898646 59.7653C1.46191 59.7653 1.64966 58.5919 1.83741 52.8184C2.0721 45.9185 2.0721 45.8246 3.38638 44.6981C4.46596 43.7593 10.0986 41.694 11.6006 41.694C12.5863 41.694 12.6332 43.243 11.6945 44.2757C10.4271 45.6369 10.521 46.3879 12.1638 49.6736L13.572 52.4899H12.4455C11.7414 52.4899 11.2251 52.1613 11.0843 51.5511C10.7557 50.3307 9.81693 50.3307 9.48836 51.5042C9.30061 52.2552 8.78429 52.4899 7.04757 52.5837L4.8884 52.7246V56.2449V59.7653H10.2863C15.5434 59.7653 15.6373 59.7653 15.9189 58.6388L16.1536 57.5123L16.7169 58.7796C17.3271 60.0469 17.9842 60.3286 18.5005 59.5306C18.6413 59.2959 17.374 56.3388 15.6842 53.0062C13.9944 49.6266 12.6332 46.6226 12.6332 46.294C12.6332 46.0124 13.1965 45.1675 13.8536 44.4165L15.121 43.1491L13.8067 41.4594C13.1026 40.5206 12.6332 39.6757 12.6802 39.6288C13.2434 39.1594 16.0597 37.892 16.2005 38.0798C16.2944 38.1737 16.9046 40.0043 17.5618 42.1634C18.2189 44.3695 18.923 46.294 19.1577 46.5287C19.8148 47.1858 20.7066 46.4348 20.425 45.543C20.1903 44.8389 20.5658 44.745 23.429 44.745C25.4474 44.745 26.6678 44.9328 26.5739 45.2144C26.48 45.4491 25.776 47.843 25.0249 50.4715C24.2739 53.147 23.5229 55.3062 23.3821 55.3062C23.2413 55.3062 22.8188 54.1327 22.4903 52.7246C21.7393 49.6266 20.8944 48.2654 20.1903 49.0164C19.4393 49.7205 22.4903 59.7653 23.429 59.7653C23.9454 59.7653 25.0249 56.8082 27.1841 49.4389C28.8739 43.7593 30.3759 38.8308 30.5167 38.4553C30.7045 37.939 31.0331 37.939 32.3473 38.6431C33.2392 39.1124 34.084 39.5349 34.1779 39.6288C34.2249 39.6757 33.7555 40.5206 33.0514 41.4594L31.7371 43.1491L33.0045 44.4165C33.6616 45.1675 34.2249 46.0124 34.2249 46.294C34.2249 46.6226 32.8637 49.6266 31.1739 53.0062C28.3106 58.6388 27.9351 60 29.1086 60C29.6249 60 36.1024 47.1389 36.1024 46.0593C36.1024 45.6369 35.68 44.8389 35.1636 44.2757C34.2249 43.243 34.2718 41.694 35.2575 41.694C36.7595 41.694 42.3921 43.7593 43.4717 44.6981C44.786 45.8246 44.786 45.9185 45.0207 52.8184C45.2084 58.5919 45.3962 59.7653 45.9594 59.7653C46.5227 59.7653 46.7105 58.7796 46.8043 54.1327C46.9921 47.1389 46.7574 45.8246 44.9737 43.8063C43.8472 42.5389 42.7207 41.9287 40.186 41.1777C38.1207 40.6145 36.431 39.8165 35.8677 39.1124C35.3514 38.5492 34.0371 37.6104 32.9575 37.0472C31.2208 36.2023 30.9392 35.8268 30.9392 34.6064C30.9392 33.6207 31.3147 32.8696 32.1126 32.2125C33.6147 31.039 36.1024 26.7677 36.1024 25.3595C36.1024 24.6554 36.384 24.3269 37.0412 24.3269C38.2616 24.3269 40.3268 22.3085 40.3268 21.1351C40.3268 20.6187 39.9044 19.68 39.3881 19.0228C38.5901 17.9902 38.4493 17.1453 38.4493 12.4984C38.4493 5.31684 37.182 2.92299 32.7698 1.79647C31.8779 1.56178 30.329 1.09239 29.2963 0.669945C27.2311 -0.128006 22.8188 -0.221882 19.9087 0.435253ZM28.8739 2.26585C29.531 2.54748 30.7514 3.43931 31.5024 4.23726C32.8637 5.73928 32.9106 5.73928 33.6147 4.84746C34.2718 3.90869 34.3187 3.95563 35.4453 5.22297C36.5248 6.44336 36.5718 6.86581 36.5718 12.1698C36.5718 17.2861 36.4779 17.8024 35.7738 17.6616C35.1636 17.5677 34.8351 16.8637 34.6473 15.3616C34.3187 13.0617 32.8637 9.82292 31.7371 8.88416C31.1739 8.41477 30.4229 8.46171 28.029 9.11885C24.3209 10.1046 17.6556 10.2454 15.4495 9.35354C13.572 8.60252 10.7557 6.63111 10.7557 6.06786C10.7557 5.73928 18.5944 2.50054 20.3781 2.12503C22.3025 1.70259 27.6066 1.79647 28.8739 2.26585ZM14.7455 10.8086C17.374 11.8882 23.2413 12.076 26.48 11.278C31.08 10.1046 30.7514 10.0576 31.831 12.2637C32.3943 13.3902 32.8167 15.0331 32.8167 15.9249C32.8637 18.1779 33.8494 19.3045 36.1963 19.5861C37.7922 19.8208 38.2616 20.0555 38.3554 20.8534C38.5432 22.0269 37.2289 22.731 36.2901 21.933C35.3044 21.1351 34.8351 21.7453 34.5065 24.2799C34.131 27.0962 32.2065 30.1003 29.578 31.8839C22.9597 36.2961 13.3842 32.0717 12.3516 24.2799C12.023 21.7453 11.5536 21.1351 10.521 21.9799C9.5353 22.8248 8.3149 22.1677 8.50266 20.9473C8.59653 20.0555 9.01898 19.8208 10.6618 19.5861C13.2904 19.2575 14.0883 18.1779 13.9006 15.1739C13.8536 13.4372 13.6189 12.827 13.1026 12.827C12.5863 12.827 12.3516 13.4841 12.1638 15.1739C11.9761 16.9106 11.7414 17.5677 11.1312 17.6616C10.3802 17.8024 10.2863 17.38 10.2863 14.329C10.2863 10.1515 10.5679 9.11885 11.6475 9.58823C12.07 9.72905 13.4781 10.3392 14.7455 10.8086ZM26.2453 35.0288L29.0616 34.3247V35.4513C29.0616 36.0614 28.7331 37.7982 28.3106 39.3002C27.4188 42.3981 26.527 43.1022 23.429 43.1022C20.3311 43.1022 19.4393 42.3981 18.5475 39.3002C18.125 37.7982 17.7964 36.0614 17.7964 35.4513V34.3247L20.6127 35.0288C23.1005 35.639 23.7576 35.639 26.2453 35.0288ZM9.72305 54.9307C10.1455 55.3531 10.4271 55.3531 10.8496 54.9307C11.1781 54.6021 12.023 54.3674 12.7271 54.3674C13.9475 54.3674 14.0414 54.5082 14.0414 56.2449V58.1225H10.2863H6.53125V56.2449C6.53125 54.5082 6.62512 54.3674 7.84552 54.3674C8.54959 54.3674 9.39448 54.6021 9.72305 54.9307Z" fill="#6366F1"/>
<path d="M16.1536 16.3473C15.6373 17.1922 16.623 17.8493 18.0781 17.6616C19.9556 17.4738 19.8617 16.1596 17.9373 15.9718C17.1393 15.8779 16.3414 16.0657 16.1536 16.3473Z" fill="#6366F1"/>
<path d="M27.4188 16.3473C26.9025 17.1922 27.8882 17.8493 29.3433 17.6616C31.2208 17.4738 31.1269 16.1596 29.2025 15.9718C28.4045 15.8779 27.6066 16.0657 27.4188 16.3473Z" fill="#6366F1"/>
<path d="M17.0454 19.3515C16.6699 20.3841 17.1862 21.6514 17.9373 21.3698C18.2189 21.2759 18.5005 20.7127 18.5005 20.1025C18.5005 18.8351 17.4679 18.2719 17.0454 19.3515Z" fill="#6366F1"/>
<path d="M28.3106 19.3515C27.9351 20.3841 28.4514 21.6514 29.2025 21.3698C29.4841 21.2759 29.7657 20.7127 29.7657 20.1025C29.7657 18.8351 28.7331 18.2719 28.3106 19.3515Z" fill="#6366F1"/>
<path d="M19.9087 25.688C19.4393 26.4859 20.0495 27.0961 21.927 27.6594C23.3821 28.0818 24.0392 28.0349 25.4943 27.4247C27.278 26.6737 27.6535 25.3594 25.9637 25.688C24.3678 25.9696 21.7862 25.9227 21.0352 25.5472C20.5658 25.3594 20.0964 25.4064 19.9087 25.688Z" fill="#6366F1"/>
<path d="M38.3085 50.8939C38.1207 51.0817 37.9799 51.598 37.9799 52.0674C37.9799 52.5837 37.5575 52.9592 36.9473 53.0531C35.5861 53.2409 35.5391 54.5551 36.9003 54.7429C37.5575 54.8368 37.9799 55.2592 38.0738 55.9163C38.2616 57.2776 39.5758 57.2776 39.7636 55.9163C39.8575 55.2592 40.2799 54.8368 40.937 54.7429C41.5003 54.649 41.9697 54.2735 41.9697 53.898C41.9697 53.5225 41.5003 53.147 40.937 53.0531C40.3268 52.9592 39.8575 52.4898 39.7636 51.9266C39.6228 50.8939 38.8718 50.3776 38.3085 50.8939Z" fill="#6366F1"/>
</svg>
