<svg width="470" height="330" viewBox="0 0 470 330" fill="none" xmlns="http://www.w3.org/2000/svg">
<rect width="470" height="330" fill="#201F50"/>
<line x1="35" y1="164.5" x2="435" y2="164.5" stroke="white" stroke-opacity="0.15"/>
<line x1="235.5" y1="35" x2="235.5" y2="295" stroke="white" stroke-opacity="0.15"/>
<path d="M310.328 187.919C309.889 189.046 310.515 190.11 311.642 190.11C312.58 190.11 313.144 188.921 312.768 187.732C312.393 186.668 310.766 186.793 310.328 187.919Z" fill="white" fill-opacity="0.1"/>
<path d="M301.566 188.796C289.238 192.926 281.353 204.878 282.042 218.208C282.417 224.904 284.107 229.535 288.3 234.979L291.366 239.047L286.61 247.495C282.104 255.317 281.353 257.758 283.293 257.695C283.731 257.633 285.922 257.257 288.174 256.757C294.87 255.317 294.495 255.129 296.623 261.262C297.874 264.892 298.876 266.832 299.564 266.957C300.315 267.082 301.879 264.829 305.321 258.759C307.95 254.128 310.453 249.935 310.891 249.31C311.517 248.433 312.267 249.435 316.273 256.506C318.838 261.012 321.404 265.267 322.03 266.018C323.031 267.207 323.219 267.27 324.032 266.456C324.533 265.956 325.722 263.327 326.661 260.636C328.601 255.192 328.475 255.255 335.046 256.757C339.427 257.82 340.741 257.633 340.741 256.193C340.741 255.63 338.613 251.5 336.11 246.932L331.417 238.671L333.92 235.98C335.297 234.478 337.237 231.537 338.238 229.472C345.747 213.577 338.113 195.179 321.467 188.858C318.275 187.607 316.523 187.982 317.149 189.734C317.399 190.297 318.087 190.923 318.651 191.111C322.405 192.175 327.85 195.617 330.728 198.62C345.372 214.078 336.736 239.234 315.459 242.864C304.132 244.804 292.743 238.734 287.486 227.97C285.484 223.777 285.358 223.277 285.358 216.706C285.358 210.51 285.546 209.447 287.111 206.13C290.365 199.121 296.059 193.802 302.693 191.612C304.821 190.923 305.697 190.297 305.697 189.484C305.697 187.732 305.008 187.607 301.566 188.796ZM304.695 245.492C306.072 245.743 307.574 246.118 307.95 246.368C308.45 246.619 307.199 249.372 304.382 254.191C300.127 261.638 300.127 261.638 299.439 259.823C297.123 253.565 296.623 252.564 295.997 252.313C295.621 252.126 293.431 252.439 291.116 252.939C288.8 253.377 286.923 253.628 286.923 253.502C286.923 253.315 288.487 250.436 290.365 247.057L293.869 240.924L297.999 243.052C300.252 244.178 303.256 245.305 304.695 245.492ZM332.731 247.244C334.671 250.749 336.173 253.69 336.11 253.753C336.11 253.815 334.233 253.44 331.98 253.002C329.727 252.501 327.599 252.126 327.161 252.063C326.786 252.063 325.847 253.69 325.159 255.63C324.408 257.633 323.594 259.823 323.344 260.449C322.906 261.45 322.03 260.324 318.651 254.253C316.335 250.186 314.52 246.744 314.645 246.619C314.771 246.494 316.523 245.993 318.525 245.43C320.528 244.929 323.594 243.677 325.347 242.739C327.099 241.738 328.663 240.924 328.851 240.861C329.039 240.861 330.728 243.74 332.731 247.244Z" fill="white" fill-opacity="0.1"/>
<path d="M304.132 194.553C294.37 197.995 288.174 206.568 288.174 216.706C288.174 227.031 294.432 235.542 304.445 238.921C315.709 242.739 328.914 236.481 333.294 225.279C335.234 220.335 335.234 213.076 333.294 208.133C328.914 196.868 315.334 190.548 304.132 194.553ZM320.34 198.495C328.788 202.626 333.419 212.388 331.104 221.274C329.477 227.845 325.472 232.664 319.527 235.417C315.146 237.42 307.762 237.232 303.131 235.104C298.813 233.039 295.183 229.535 293.118 225.404C291.867 222.839 291.616 221.399 291.616 216.706C291.616 212.012 291.867 210.573 293.118 208.007C295.684 202.751 301.066 198.37 306.635 196.931C310.265 195.992 316.711 196.681 320.34 198.495Z" fill="white" fill-opacity="0.1"/>
<path d="M308.575 205.629L306.385 209.947L301.879 210.636C299.376 211.011 297.123 211.7 296.873 212.138C296.497 212.701 297.436 214.078 299.689 216.393L303.006 219.835L302.38 224.403C301.504 230.411 301.942 230.786 306.823 228.346C308.951 227.282 311.016 226.406 311.454 226.406C311.892 226.406 313.957 227.344 316.147 228.408C321.216 231.099 321.779 230.661 320.716 224.528L319.965 220.023L323.219 216.706C326.974 212.889 327.036 211.7 323.407 211.011C316.398 209.822 316.773 210.01 314.458 205.755C313.269 203.564 311.955 201.687 311.516 201.562C311.078 201.374 309.827 203.189 308.575 205.629ZM315.522 212.826C316.147 213.014 317.712 213.327 319.089 213.577L321.529 213.952L319.151 216.393C316.836 218.771 316.773 218.896 317.211 222.275L317.587 225.717L314.708 224.09L311.829 222.463L309.076 223.84C307.511 224.528 306.135 225.154 305.947 225.154C305.697 225.154 305.759 223.652 305.947 221.837C306.385 218.708 306.322 218.521 304.132 216.393C301.754 214.078 302.067 213.327 305.384 213.264C307.887 213.264 308.388 212.826 310.077 209.509L311.516 206.756L312.956 209.634C313.769 211.261 314.958 212.701 315.522 212.826Z" fill="white" fill-opacity="0.1"/>
<path d="M312.21 289.4C313.938 289.4 315.372 290.006 316.512 291.218C317.664 292.43 318.24 293.924 318.24 295.7C318.24 297.464 317.664 298.958 316.512 300.182C315.372 301.394 313.938 302 312.21 302H307.26V289.4H312.21ZM312.21 300.02C313.398 300.02 314.364 299.612 315.108 298.796C315.864 297.98 316.242 296.948 316.242 295.7C316.242 294.44 315.864 293.408 315.108 292.604C314.364 291.788 313.398 291.38 312.21 291.38H309.33V300.02H312.21ZM324.249 302.234C322.929 302.234 321.807 301.778 320.883 300.866C319.959 299.954 319.497 298.832 319.497 297.5C319.497 296.168 319.959 295.046 320.883 294.134C321.807 293.222 322.929 292.766 324.249 292.766C325.581 292.766 326.703 293.222 327.615 294.134C328.539 295.046 329.001 296.168 329.001 297.5C329.001 298.832 328.539 299.954 327.615 300.866C326.703 301.778 325.581 302.234 324.249 302.234ZM322.251 299.534C322.791 300.074 323.457 300.344 324.249 300.344C325.041 300.344 325.707 300.074 326.247 299.534C326.787 298.994 327.057 298.316 327.057 297.5C327.057 296.684 326.787 296.006 326.247 295.466C325.707 294.926 325.041 294.656 324.249 294.656C323.457 294.656 322.791 294.926 322.251 295.466C321.711 296.006 321.441 296.684 321.441 297.5C321.441 298.316 321.711 298.994 322.251 299.534ZM335.007 302.234C333.651 302.234 332.517 301.778 331.605 300.866C330.705 299.954 330.255 298.832 330.255 297.5C330.255 296.156 330.705 295.034 331.605 294.134C332.517 293.222 333.651 292.766 335.007 292.766C335.883 292.766 336.681 292.976 337.401 293.396C338.121 293.816 338.661 294.38 339.021 295.088L337.347 296.06C337.143 295.628 336.831 295.292 336.411 295.052C336.003 294.8 335.529 294.674 334.989 294.674C334.197 294.674 333.531 294.944 332.991 295.484C332.463 296.024 332.199 296.696 332.199 297.5C332.199 298.304 332.463 298.976 332.991 299.516C333.531 300.056 334.197 300.326 334.989 300.326C335.517 300.326 335.991 300.2 336.411 299.948C336.843 299.696 337.167 299.36 337.383 298.94L339.057 299.894C338.673 300.614 338.121 301.184 337.401 301.604C336.681 302.024 335.883 302.234 335.007 302.234ZM345.484 294.872H343.252V299.192C343.252 299.564 343.336 299.834 343.504 300.002C343.672 300.158 343.918 300.248 344.242 300.272C344.578 300.284 344.992 300.278 345.484 300.254V302C343.996 302.18 342.928 302.054 342.28 301.622C341.632 301.178 341.308 300.368 341.308 299.192V294.872H339.652V293H341.308V291.056L343.252 290.48V293H345.484V294.872ZM351.126 302.234C349.806 302.234 348.684 301.778 347.76 300.866C346.836 299.954 346.374 298.832 346.374 297.5C346.374 296.168 346.836 295.046 347.76 294.134C348.684 293.222 349.806 292.766 351.126 292.766C352.458 292.766 353.58 293.222 354.492 294.134C355.416 295.046 355.878 296.168 355.878 297.5C355.878 298.832 355.416 299.954 354.492 300.866C353.58 301.778 352.458 302.234 351.126 302.234ZM349.128 299.534C349.668 300.074 350.334 300.344 351.126 300.344C351.918 300.344 352.584 300.074 353.124 299.534C353.664 298.994 353.934 298.316 353.934 297.5C353.934 296.684 353.664 296.006 353.124 295.466C352.584 294.926 351.918 294.656 351.126 294.656C350.334 294.656 349.668 294.926 349.128 295.466C348.588 296.006 348.318 296.684 348.318 297.5C348.318 298.316 348.588 298.994 349.128 299.534ZM359.58 294.512C360.072 293.396 360.996 292.838 362.352 292.838V294.944C361.608 294.896 360.96 295.076 360.408 295.484C359.856 295.88 359.58 296.54 359.58 297.464V302H357.636V293H359.58V294.512ZM365.218 295.484C365.218 295.784 365.38 296.024 365.704 296.204C366.04 296.372 366.442 296.522 366.91 296.654C367.39 296.774 367.87 296.918 368.35 297.086C368.83 297.254 369.232 297.542 369.556 297.95C369.892 298.346 370.06 298.85 370.06 299.462C370.06 300.326 369.724 301.004 369.052 301.496C368.392 301.988 367.558 302.234 366.55 302.234C365.662 302.234 364.9 302.048 364.264 301.676C363.628 301.304 363.166 300.788 362.878 300.128L364.552 299.156C364.864 300.02 365.53 300.452 366.55 300.452C367.57 300.452 368.08 300.116 368.08 299.444C368.08 299.156 367.912 298.922 367.576 298.742C367.252 298.562 366.85 298.412 366.37 298.292C365.902 298.16 365.428 298.01 364.948 297.842C364.468 297.674 364.06 297.398 363.724 297.014C363.4 296.618 363.238 296.12 363.238 295.52C363.238 294.692 363.55 294.026 364.174 293.522C364.81 293.018 365.596 292.766 366.532 292.766C367.276 292.766 367.936 292.934 368.512 293.27C369.1 293.594 369.55 294.05 369.862 294.638L368.224 295.556C367.912 294.872 367.348 294.53 366.532 294.53C366.16 294.53 365.848 294.614 365.596 294.782C365.344 294.938 365.218 295.172 365.218 295.484Z" fill="white" fill-opacity="0.4"/>
<path d="M307.35 275V269.85L319.3 257.55C321.967 254.75 323.3 252.417 323.3 250.55C323.3 249.183 322.867 248.083 322 247.25C321.167 246.417 320.083 246 318.75 246C316.117 246 314.167 247.367 312.9 250.1L307.1 246.7C308.2 244.3 309.783 242.467 311.85 241.2C313.917 239.933 316.183 239.3 318.65 239.3C321.817 239.3 324.533 240.3 326.8 242.3C329.067 244.267 330.2 246.933 330.2 250.3C330.2 253.933 328.283 257.667 324.45 261.5L317.6 268.35H330.75V275H307.35ZM347.824 275.7C343.458 275.7 340.024 274.05 337.524 270.75C335.058 267.417 333.824 263 333.824 257.5C333.824 252 335.058 247.6 337.524 244.3C340.024 240.967 343.458 239.3 347.824 239.3C352.224 239.3 355.658 240.967 358.124 244.3C360.591 247.6 361.824 252 361.824 257.5C361.824 263 360.591 267.417 358.124 270.75C355.658 274.05 352.224 275.7 347.824 275.7ZM342.524 266.05C343.724 267.983 345.491 268.95 347.824 268.95C350.158 268.95 351.924 267.967 353.124 266C354.358 264.033 354.974 261.2 354.974 257.5C354.974 253.767 354.358 250.917 353.124 248.95C351.924 246.983 350.158 246 347.824 246C345.491 246 343.724 246.983 342.524 248.95C341.324 250.917 340.724 253.767 340.724 257.5C340.724 261.233 341.324 264.083 342.524 266.05ZM379.318 275.7C374.952 275.7 371.518 274.05 369.018 270.75C366.552 267.417 365.318 263 365.318 257.5C365.318 252 366.552 247.6 369.018 244.3C371.518 240.967 374.952 239.3 379.318 239.3C383.718 239.3 387.152 240.967 389.618 244.3C392.085 247.6 393.318 252 393.318 257.5C393.318 263 392.085 267.417 389.618 270.75C387.152 274.05 383.718 275.7 379.318 275.7ZM374.018 266.05C375.218 267.983 376.985 268.95 379.318 268.95C381.652 268.95 383.418 267.967 384.618 266C385.852 264.033 386.468 261.2 386.468 257.5C386.468 253.767 385.852 250.917 384.618 248.95C383.418 246.983 381.652 246 379.318 246C376.985 246 375.218 246.983 374.018 248.95C372.818 250.917 372.218 253.767 372.218 257.5C372.218 261.233 372.818 264.083 374.018 266.05ZM420.213 254.45V260.5H411.963V268.75H405.913V260.5H397.713V254.45H405.913V246.25H411.963V254.45H420.213Z" fill="white"/>
<path d="M79.4153 187.475C79.1654 187.663 78.9779 189.537 78.9779 191.537C78.9779 194.849 78.8529 195.224 77.478 195.787C75.1658 196.662 74.6033 198.286 74.6033 204.161C74.6033 210.41 74.8533 211.16 77.1656 212.41C78.4779 213.097 78.9779 213.785 78.9779 215.035C78.9779 217.16 78.4779 217.784 76.3532 218.722C73.3535 220.097 74.8533 223.221 78.103 222.409C80.8527 221.722 82.7275 219.097 82.7275 216.035C82.7275 213.66 82.9775 213.222 84.5398 212.41C86.8521 211.16 87.102 210.41 87.102 204.161C87.102 198.286 86.5396 196.662 84.2273 195.787C82.915 195.287 82.665 194.787 82.8525 193.162L83.04 191.1H87.4145H91.7891L91.9765 206.598C92.1015 219.659 92.289 222.159 93.0389 222.409C93.6014 222.659 94.4138 222.471 94.9137 222.034C95.7261 221.409 95.8511 218.597 95.8511 204.911C95.8511 193.037 95.6637 188.35 95.1012 187.788C94.2888 186.975 80.1653 186.663 79.4153 187.475ZM82.7275 204.286V208.973L80.7277 208.785C78.6654 208.598 78.6654 208.598 78.4779 204.911C78.228 200.224 78.5404 199.536 80.8527 199.536H82.7275V204.286Z" fill="white" fill-opacity="0.1"/>
<path d="M41.4818 211.098C40.4819 211.66 38.982 211.848 37.3572 211.598C34.045 211.16 31.1703 212.66 29.7955 215.41C27.9207 219.472 28.7331 220.847 39.1695 231.283L48.6685 240.782L74.2909 240.657L99.9132 240.47V238.907V237.345L75.1658 237.158L50.4808 237.033L41.6067 228.096C36.7323 223.159 32.7327 218.784 32.7327 218.409C32.7327 217.347 35.0449 215.16 36.2323 215.16C36.7947 215.16 40.7943 218.659 45.1064 222.971L52.9806 230.783H78.103C99.9132 230.783 103.288 230.908 103.975 231.721C104.413 232.283 104.975 234.47 105.163 236.595C105.538 240.22 105.663 240.47 107.1 240.47C108.6 240.47 108.662 240.345 108.662 235.658C108.662 231.471 108.475 230.658 107.162 229.283C106.288 228.408 104.6 227.409 103.413 227.034C102.1 226.659 91.914 226.409 79.4778 226.409H57.7926L58.105 224.534C58.7925 221.284 57.7926 218.534 54.7929 215.16C53.2305 213.41 51.1683 211.598 50.1684 211.098C47.9811 209.91 43.544 209.91 41.4818 211.098ZM48.2311 214.785C50.4808 215.972 53.1056 218.784 53.918 220.847C54.5429 222.534 54.2304 225.159 53.418 225.159C53.2305 225.159 50.6683 222.784 47.7936 219.909C43.544 215.597 42.7941 214.597 43.7315 214.347C45.7938 213.847 46.4812 213.91 48.2311 214.785Z" fill="white" fill-opacity="0.1"/>
<path d="M35.1699 237.157C34.17 238.97 34.9199 244.407 36.3573 246.406C38.0446 248.656 40.1069 249.531 43.8565 249.531C46.7312 249.531 47.1062 249.656 47.1062 250.781C47.1062 251.531 45.9813 253.156 44.6064 254.468C42.5441 256.405 42.1067 257.28 42.1067 259.155C42.1067 262.217 43.544 264.905 45.8563 266.092C50.9808 268.779 56.4802 265.217 56.4802 259.155C56.4802 257.28 56.0428 256.405 53.9805 254.468C52.6056 253.156 51.4807 251.531 51.4807 250.781C51.4807 249.531 51.7932 249.531 71.7911 249.531H92.1015V250.906C92.1015 251.843 91.4141 252.718 90.2892 253.406C86.1646 255.718 85.4772 261.155 88.7269 264.592C93.1639 269.217 100.851 266.279 100.851 260.03C100.851 256.968 99.5383 254.343 97.476 253.406C96.3511 252.906 95.8511 252.218 95.8511 251.156C95.8511 249.594 95.9136 249.594 101.851 249.406C106.788 249.281 108.037 249.031 108.6 248.156C109.037 247.406 109.037 246.844 108.6 246.406C108.162 245.969 97.5385 245.719 75.1658 245.719C50.4808 245.719 41.9817 245.532 40.8568 244.969C39.5445 244.282 39.2945 243.657 39.107 240.782C38.857 235.97 36.7947 234.095 35.1699 237.157ZM51.8557 257.968C54.1055 261.342 50.0434 264.405 46.9812 261.592C45.5438 260.28 45.5438 259.218 47.1062 257.655C48.7935 255.968 50.6058 256.093 51.8557 257.968ZM96.1636 257.655C97.8509 259.468 96.7885 262.28 94.4138 262.53C92.164 262.78 90.8517 261.717 90.8517 259.468C90.8517 256.53 94.1638 255.406 96.1636 257.655Z" fill="white" fill-opacity="0.1"/>
<path d="M77.32 289.4V302H75.25V293.018L71.416 299.354H71.164L67.33 293V302H65.26V289.4H67.492L71.29 295.7L75.106 289.4H77.32ZM81.2363 298.328C81.3803 299.012 81.7103 299.54 82.2263 299.912C82.7423 300.272 83.3723 300.452 84.1163 300.452C85.1483 300.452 85.9223 300.08 86.4383 299.336L88.0403 300.272C87.1523 301.58 85.8383 302.234 84.0983 302.234C82.6343 302.234 81.4523 301.79 80.5523 300.902C79.6523 300.002 79.2023 298.868 79.2023 297.5C79.2023 296.156 79.6463 295.034 80.5343 294.134C81.4223 293.222 82.5623 292.766 83.9543 292.766C85.2743 292.766 86.3543 293.228 87.1943 294.152C88.0463 295.076 88.4723 296.198 88.4723 297.518C88.4723 297.722 88.4483 297.992 88.4003 298.328H81.2363ZM81.2183 296.744H86.5103C86.3783 296.012 86.0723 295.46 85.5923 295.088C85.1243 294.716 84.5723 294.53 83.9363 294.53C83.2163 294.53 82.6163 294.728 82.1363 295.124C81.6563 295.52 81.3503 296.06 81.2183 296.744ZM97.2581 289.4H99.2021V302H97.2581V300.704C96.5261 301.724 95.4761 302.234 94.1081 302.234C92.8721 302.234 91.8161 301.778 90.9401 300.866C90.0641 299.942 89.6261 298.82 89.6261 297.5C89.6261 296.168 90.0641 295.046 90.9401 294.134C91.8161 293.222 92.8721 292.766 94.1081 292.766C95.4761 292.766 96.5261 293.27 97.2581 294.278V289.4ZM92.3801 299.57C92.9201 300.11 93.5981 300.38 94.4141 300.38C95.2301 300.38 95.9081 300.11 96.4481 299.57C96.9881 299.018 97.2581 298.328 97.2581 297.5C97.2581 296.672 96.9881 295.988 96.4481 295.448C95.9081 294.896 95.2301 294.62 94.4141 294.62C93.5981 294.62 92.9201 294.896 92.3801 295.448C91.8401 295.988 91.5701 296.672 91.5701 297.5C91.5701 298.328 91.8401 299.018 92.3801 299.57ZM103.304 291.29C103.064 291.53 102.776 291.65 102.44 291.65C102.104 291.65 101.81 291.53 101.558 291.29C101.318 291.038 101.198 290.744 101.198 290.408C101.198 290.072 101.318 289.784 101.558 289.544C101.798 289.292 102.092 289.166 102.44 289.166C102.788 289.166 103.082 289.292 103.322 289.544C103.562 289.784 103.682 290.072 103.682 290.408C103.682 290.744 103.556 291.038 103.304 291.29ZM101.468 302V293H103.412V302H101.468ZM109.917 302.234C108.561 302.234 107.427 301.778 106.515 300.866C105.615 299.954 105.165 298.832 105.165 297.5C105.165 296.156 105.615 295.034 106.515 294.134C107.427 293.222 108.561 292.766 109.917 292.766C110.793 292.766 111.591 292.976 112.311 293.396C113.031 293.816 113.571 294.38 113.931 295.088L112.257 296.06C112.053 295.628 111.741 295.292 111.321 295.052C110.913 294.8 110.439 294.674 109.899 294.674C109.107 294.674 108.441 294.944 107.901 295.484C107.373 296.024 107.109 296.696 107.109 297.5C107.109 298.304 107.373 298.976 107.901 299.516C108.441 300.056 109.107 300.326 109.899 300.326C110.427 300.326 110.901 300.2 111.321 299.948C111.753 299.696 112.077 299.36 112.293 298.94L113.967 299.894C113.583 300.614 113.031 301.184 112.311 301.604C111.591 302.024 110.793 302.234 109.917 302.234ZM122.36 293H124.304V302H122.36V300.704C121.628 301.724 120.578 302.234 119.21 302.234C117.974 302.234 116.918 301.778 116.042 300.866C115.166 299.942 114.728 298.82 114.728 297.5C114.728 296.168 115.166 295.046 116.042 294.134C116.918 293.222 117.974 292.766 119.21 292.766C120.578 292.766 121.628 293.27 122.36 294.278V293ZM117.482 299.57C118.022 300.11 118.7 300.38 119.516 300.38C120.332 300.38 121.01 300.11 121.55 299.57C122.09 299.018 122.36 298.328 122.36 297.5C122.36 296.672 122.09 295.988 121.55 295.448C121.01 294.896 120.332 294.62 119.516 294.62C118.7 294.62 118.022 294.896 117.482 295.448C116.942 295.988 116.672 296.672 116.672 297.5C116.672 298.328 116.942 299.018 117.482 299.57ZM126.57 302V288.86H128.514V302H126.57ZM142.813 295.466C143.365 295.754 143.797 296.15 144.109 296.654C144.421 297.158 144.577 297.74 144.577 298.4C144.577 299.432 144.211 300.29 143.479 300.974C142.747 301.658 141.853 302 140.797 302H135.397V289.4H140.401C141.433 289.4 142.303 289.736 143.011 290.408C143.731 291.068 144.091 291.896 144.091 292.892C144.091 293.984 143.665 294.842 142.813 295.466ZM140.401 291.344H137.467V294.656H140.401C140.857 294.656 141.241 294.5 141.553 294.188C141.865 293.864 142.021 293.468 142.021 293C142.021 292.532 141.865 292.142 141.553 291.83C141.241 291.506 140.857 291.344 140.401 291.344ZM140.797 300.056C141.277 300.056 141.679 299.888 142.003 299.552C142.339 299.204 142.507 298.784 142.507 298.292C142.507 297.8 142.339 297.386 142.003 297.05C141.679 296.702 141.277 296.528 140.797 296.528H137.467V300.056H140.797ZM147.875 298.328C148.019 299.012 148.349 299.54 148.865 299.912C149.381 300.272 150.011 300.452 150.755 300.452C151.787 300.452 152.561 300.08 153.077 299.336L154.679 300.272C153.791 301.58 152.477 302.234 150.737 302.234C149.273 302.234 148.091 301.79 147.191 300.902C146.291 300.002 145.841 298.868 145.841 297.5C145.841 296.156 146.285 295.034 147.173 294.134C148.061 293.222 149.201 292.766 150.593 292.766C151.913 292.766 152.993 293.228 153.833 294.152C154.685 295.076 155.111 296.198 155.111 297.518C155.111 297.722 155.087 297.992 155.039 298.328H147.875ZM147.857 296.744H153.149C153.017 296.012 152.711 295.46 152.231 295.088C151.763 294.716 151.211 294.53 150.575 294.53C149.855 294.53 149.255 294.728 148.775 295.124C148.295 295.52 147.989 296.06 147.857 296.744ZM163.897 289.4H165.841V302H163.897V300.704C163.165 301.724 162.115 302.234 160.747 302.234C159.511 302.234 158.455 301.778 157.579 300.866C156.703 299.942 156.265 298.82 156.265 297.5C156.265 296.168 156.703 295.046 157.579 294.134C158.455 293.222 159.511 292.766 160.747 292.766C162.115 292.766 163.165 293.27 163.897 294.278V289.4ZM159.019 299.57C159.559 300.11 160.237 300.38 161.053 300.38C161.869 300.38 162.547 300.11 163.087 299.57C163.627 299.018 163.897 298.328 163.897 297.5C163.897 296.672 163.627 295.988 163.087 295.448C162.547 294.896 161.869 294.62 161.053 294.62C160.237 294.62 159.559 294.896 159.019 295.448C158.479 295.988 158.209 296.672 158.209 297.5C158.209 298.328 158.479 299.018 159.019 299.57ZM169.8 295.484C169.8 295.784 169.962 296.024 170.286 296.204C170.622 296.372 171.024 296.522 171.492 296.654C171.972 296.774 172.452 296.918 172.932 297.086C173.412 297.254 173.814 297.542 174.138 297.95C174.474 298.346 174.642 298.85 174.642 299.462C174.642 300.326 174.306 301.004 173.634 301.496C172.974 301.988 172.14 302.234 171.132 302.234C170.244 302.234 169.482 302.048 168.846 301.676C168.21 301.304 167.748 300.788 167.46 300.128L169.134 299.156C169.446 300.02 170.112 300.452 171.132 300.452C172.152 300.452 172.662 300.116 172.662 299.444C172.662 299.156 172.494 298.922 172.158 298.742C171.834 298.562 171.432 298.412 170.952 298.292C170.484 298.16 170.01 298.01 169.53 297.842C169.05 297.674 168.642 297.398 168.306 297.014C167.982 296.618 167.82 296.12 167.82 295.52C167.82 294.692 168.132 294.026 168.756 293.522C169.392 293.018 170.178 292.766 171.114 292.766C171.858 292.766 172.518 292.934 173.094 293.27C173.682 293.594 174.132 294.05 174.444 294.638L172.806 295.556C172.494 294.872 171.93 294.53 171.114 294.53C170.742 294.53 170.43 294.614 170.178 294.782C169.926 294.938 169.8 295.172 169.8 295.484Z" fill="white" fill-opacity="0.4"/>
<path d="M73.75 240H79.75V275H72.85V247.3L66.25 249.15L64.55 243.25L73.75 240ZM99.0859 275.7C94.7193 275.7 91.2859 274.05 88.7859 270.75C86.3193 267.417 85.0859 263 85.0859 257.5C85.0859 252 86.3193 247.6 88.7859 244.3C91.2859 240.967 94.7193 239.3 99.0859 239.3C103.486 239.3 106.919 240.967 109.386 244.3C111.853 247.6 113.086 252 113.086 257.5C113.086 263 111.853 267.417 109.386 270.75C106.919 274.05 103.486 275.7 99.0859 275.7ZM93.7859 266.05C94.9859 267.983 96.7526 268.95 99.0859 268.95C101.419 268.95 103.186 267.967 104.386 266C105.619 264.033 106.236 261.2 106.236 257.5C106.236 253.767 105.619 250.917 104.386 248.95C103.186 246.983 101.419 246 99.0859 246C96.7526 246 94.9859 246.983 93.7859 248.95C92.5859 250.917 91.9859 253.767 91.9859 257.5C91.9859 261.233 92.5859 264.083 93.7859 266.05ZM130.58 275.7C126.213 275.7 122.78 274.05 120.28 270.75C117.813 267.417 116.58 263 116.58 257.5C116.58 252 117.813 247.6 120.28 244.3C122.78 240.967 126.213 239.3 130.58 239.3C134.98 239.3 138.413 240.967 140.88 244.3C143.347 247.6 144.58 252 144.58 257.5C144.58 263 143.347 267.417 140.88 270.75C138.413 274.05 134.98 275.7 130.58 275.7ZM125.28 266.05C126.48 267.983 128.247 268.95 130.58 268.95C132.913 268.95 134.68 267.967 135.88 266C137.113 264.033 137.73 261.2 137.73 257.5C137.73 253.767 137.113 250.917 135.88 248.95C134.68 246.983 132.913 246 130.58 246C128.247 246 126.48 246.983 125.28 248.95C124.08 250.917 123.48 253.767 123.48 257.5C123.48 261.233 124.08 264.083 125.28 266.05ZM162.074 275.7C157.708 275.7 154.274 274.05 151.774 270.75C149.308 267.417 148.074 263 148.074 257.5C148.074 252 149.308 247.6 151.774 244.3C154.274 240.967 157.708 239.3 162.074 239.3C166.474 239.3 169.908 240.967 172.374 244.3C174.841 247.6 176.074 252 176.074 257.5C176.074 263 174.841 267.417 172.374 270.75C169.908 274.05 166.474 275.7 162.074 275.7ZM156.774 266.05C157.974 267.983 159.741 268.95 162.074 268.95C164.408 268.95 166.174 267.967 167.374 266C168.608 264.033 169.224 261.2 169.224 257.5C169.224 253.767 168.608 250.917 167.374 248.95C166.174 246.983 164.408 246 162.074 246C159.741 246 157.974 246.983 156.774 248.95C155.574 250.917 154.974 253.767 154.974 257.5C154.974 261.233 155.574 264.083 156.774 266.05ZM202.968 254.45V260.5H194.718V268.75H188.668V260.5H180.468V254.45H188.668V246.25H194.718V254.45H202.968Z" fill="white"/>
<path d="M72.5449 22.5803C71.168 22.8933 67.1626 24.3327 63.6579 25.7721C57.1491 28.4633 56.0226 29.5272 58.0879 31.217C58.9015 31.9054 58.9015 32.2809 58.0879 34.0959C57.5872 35.3476 57.2117 38.289 57.2117 41.0428C57.2117 44.8604 56.9614 46.1121 55.96 47.3638C55.2716 48.24 54.7083 49.4916 54.7083 50.1801C54.7083 51.7447 57.462 54.4358 59.0892 54.4358C59.9654 54.4358 60.3409 54.8739 60.3409 55.8127C60.3409 57.6902 63.6579 63.3854 65.6606 64.95C66.7245 65.8262 67.2252 66.8275 67.2252 68.1418C67.2252 69.769 66.8497 70.2697 64.5967 71.3962C63.0946 72.1472 61.3423 73.3989 60.6539 74.1499C59.9028 75.0887 57.6498 76.1526 54.8961 76.9036C51.5165 77.905 50.0145 78.7186 48.5125 80.4084C46.1343 83.0995 45.8213 84.8519 46.0717 94.1769C46.1968 100.373 46.4472 101.687 47.1982 101.687C47.9492 101.687 48.1995 100.122 48.4499 92.4246C48.7628 83.2247 48.7628 83.0995 50.5152 81.5975C51.9546 80.3458 59.4647 77.5921 61.4674 77.5921C62.7817 77.5921 62.8443 79.6574 61.5926 81.0342C59.9028 82.8492 60.028 83.8505 62.2185 88.2314L64.096 91.9865H62.594C61.6552 91.9865 60.9668 91.5484 60.779 90.7348C60.3409 89.1076 59.0892 89.1076 58.6511 90.6722C58.4008 91.6736 57.7124 91.9865 55.3968 92.1117L52.5179 92.2994V96.9932V101.687H59.7151C66.7245 101.687 66.8497 101.687 67.2252 100.185L67.5381 98.683L68.2892 100.373C69.1028 102.063 69.9789 102.438 70.6674 101.374C70.8551 101.061 69.1653 97.1184 66.9123 92.6749C64.6593 88.1688 62.8443 84.1634 62.8443 83.7253C62.8443 83.3498 63.5953 82.2233 64.4715 81.222L66.1613 79.5322L64.4089 77.2791C63.4702 76.0275 62.8443 74.9009 62.9069 74.8384C63.6579 74.2125 67.413 72.5227 67.6007 72.7731C67.7259 72.8982 68.5395 75.339 69.4157 78.2179C70.2919 81.1594 71.2306 83.7253 71.5435 84.0383C72.4197 84.9144 73.6088 83.9131 73.2333 82.724C72.9204 81.7852 73.4211 81.6601 77.2387 81.6601C79.9299 81.6601 81.5571 81.9104 81.4319 82.2859C81.3067 82.5988 80.368 85.7906 79.3666 89.2954C78.3652 92.8627 77.3639 95.7416 77.1761 95.7416C76.9884 95.7416 76.4251 94.1769 75.987 92.2994C74.9857 88.1688 73.8592 86.3539 72.9204 87.3552C71.9191 88.294 75.987 101.687 77.2387 101.687C77.9272 101.687 79.3666 97.7443 82.2455 87.9185C84.4985 80.3458 86.5012 73.7744 86.689 73.2737C86.9393 72.5853 87.3774 72.5853 89.1298 73.5241C90.3189 74.1499 91.4454 74.7132 91.5706 74.8384C91.6332 74.9009 91.0073 76.0275 90.0685 77.2791L88.3162 79.5322L90.006 81.222C90.8821 82.2233 91.6332 83.3498 91.6332 83.7253C91.6332 84.1634 89.8182 88.1688 87.5652 92.6749C83.7475 100.185 83.2468 102 84.8114 102C85.4999 102 94.1365 84.8519 94.1365 83.4124C94.1365 82.8492 93.5733 81.7852 92.8848 81.0342C91.6332 79.6574 91.6957 77.5921 93.01 77.5921C95.0127 77.5921 102.523 80.3458 103.962 81.5975C105.715 83.0995 105.715 83.2247 106.028 92.4246C106.278 100.122 106.528 101.687 107.279 101.687C108.03 101.687 108.281 100.373 108.406 94.1769C108.656 84.8519 108.343 83.0995 105.965 80.4084C104.463 78.7186 102.961 77.905 99.5814 76.9036C96.8277 76.1526 94.5746 75.0887 93.8236 74.1499C93.1352 73.3989 91.3828 72.1472 89.9434 71.3962C87.6277 70.2697 87.2522 69.769 87.2522 68.1418C87.2522 66.8275 87.7529 65.8262 88.8169 64.95C90.8196 63.3854 94.1365 57.6902 94.1365 55.8127C94.1365 54.8739 94.512 54.4358 95.3882 54.4358C97.0154 54.4358 99.7691 51.7447 99.7691 50.1801C99.7691 49.4916 99.2059 48.24 98.5174 47.3638C97.4535 45.9869 97.2658 44.8604 97.2658 38.6645C97.2658 29.0891 95.576 25.8973 89.693 24.3953C88.5039 24.0824 86.4386 23.4565 85.0618 22.8933C82.3081 21.8293 76.4251 21.7042 72.5449 22.5803ZM84.4985 25.0211C85.3747 25.3966 87.0019 26.5857 88.0033 27.6497C89.8182 29.6524 89.8808 29.6524 90.8196 28.4633C91.6957 27.2116 91.7583 27.2742 93.2603 28.964C94.6998 30.5911 94.7624 31.1544 94.7624 38.2265C94.7624 45.0482 94.6372 45.7366 93.6984 45.5488C92.8848 45.4237 92.4468 44.4849 92.1964 42.4822C91.7583 39.4156 89.8182 35.0972 88.3162 33.8455C87.5652 33.2197 86.5638 33.2823 83.372 34.1585C78.4278 35.4727 69.5408 35.6605 66.5994 34.4714C64.096 33.47 60.3409 30.8415 60.3409 30.0905C60.3409 29.6524 70.7925 25.3341 73.1707 24.8334C75.7367 24.2701 82.8087 24.3953 84.4985 25.0211ZM65.6606 36.4115C69.1653 37.8509 76.9884 38.1013 81.3067 37.0373C87.44 35.4727 87.0019 35.4101 88.4413 38.3516C89.1924 39.8536 89.7556 42.0441 89.7556 43.2332C89.8182 46.2373 91.1325 47.7393 94.2617 48.1148C96.3896 48.4277 97.0154 48.7406 97.1406 49.8046C97.3909 51.3692 95.6386 52.3079 94.3869 51.244C93.0726 50.1801 92.4468 50.9937 92.0087 54.3732C91.508 58.1283 88.942 62.1337 85.4373 64.5119C76.6129 70.3949 63.8457 64.7623 62.4688 54.3732C62.0307 50.9937 61.4049 50.1801 60.028 51.3066C58.7137 52.4331 57.0865 51.5569 57.3369 49.9297C57.462 48.7406 58.0253 48.4277 60.2158 48.1148C63.7205 47.6767 64.7844 46.2373 64.5341 42.2319C64.4715 39.9162 64.1586 39.1026 63.4702 39.1026C62.7817 39.1026 62.4688 39.9788 62.2185 42.2319C61.9681 44.5475 61.6552 45.4237 60.8416 45.5488C59.8403 45.7366 59.7151 45.1733 59.7151 41.1053C59.7151 35.5353 60.0906 34.1585 61.53 34.7843C62.0933 34.9721 63.9708 35.7857 65.6606 36.4115ZM80.9938 68.7051L84.7489 67.7663V69.2683C84.7489 70.0819 84.3108 72.3976 83.7475 74.4003C82.5584 78.5308 81.3693 79.4696 77.2387 79.4696C73.1082 79.4696 71.9191 78.5308 70.7299 74.4003C70.1667 72.3976 69.7286 70.0819 69.7286 69.2683V67.7663L73.4837 68.7051C76.8006 69.5187 77.6768 69.5187 80.9938 68.7051ZM58.9641 95.2409C59.5273 95.8041 59.9028 95.8041 60.4661 95.2409C60.9042 94.8028 62.0307 94.4899 62.9695 94.4899C64.5967 94.4899 64.7218 94.6776 64.7218 96.9932V99.4966H59.7151H54.7083V96.9932C54.7083 94.6776 54.8335 94.4899 56.4607 94.4899C57.3995 94.4899 58.526 94.8028 58.9641 95.2409Z" fill="white" fill-opacity="0.1"/>
<path d="M67.5381 43.7964C66.8497 44.9229 68.164 45.7991 70.1041 45.5488C72.6075 45.2984 72.4823 43.5461 69.9163 43.2957C68.8524 43.1706 67.7885 43.4209 67.5381 43.7964Z" fill="white" fill-opacity="0.1"/>
<path d="M82.5584 43.7964C81.87 44.9229 83.1843 45.7991 85.1244 45.5488C87.6278 45.2984 87.5026 43.5461 84.9366 43.2957C83.8727 43.1706 82.8087 43.4209 82.5584 43.7964Z" fill="white" fill-opacity="0.1"/>
<path d="M68.7272 47.8018C68.2266 49.1787 68.915 50.8684 69.9163 50.4929C70.2918 50.3678 70.6673 49.6168 70.6673 48.8032C70.6673 47.1134 69.2905 46.3624 68.7272 47.8018Z" fill="white" fill-opacity="0.1"/>
<path d="M83.7475 47.8018C83.2468 49.1787 83.9353 50.8684 84.9366 50.4929C85.3121 50.3678 85.6876 49.6168 85.6876 48.8032C85.6876 47.1134 84.3108 46.3624 83.7475 47.8018Z" fill="white" fill-opacity="0.1"/>
<path d="M72.5449 56.2508C71.919 57.3147 72.7326 58.1283 75.236 58.8793C77.1761 59.4426 78.0523 59.38 79.9924 58.5664C82.3706 57.5651 82.8713 55.8127 80.6183 56.2508C78.4904 56.6263 75.0483 56.5637 74.0469 56.063C73.4211 55.8127 72.7952 55.8753 72.5449 56.2508Z" fill="white" fill-opacity="0.1"/>
<path d="M97.078 89.8587C96.8277 90.109 96.6399 90.7974 96.6399 91.4233C96.6399 92.1117 96.0766 92.6124 95.263 92.7375C93.4481 92.9879 93.3855 94.7403 95.2005 94.9906C96.0766 95.1158 96.6399 95.679 96.7651 96.5552C97.0154 98.3701 98.7678 98.3701 99.0181 96.5552C99.1433 95.679 99.7065 95.1158 100.583 94.9906C101.334 94.8654 101.96 94.3647 101.96 93.8641C101.96 93.3634 101.334 92.8627 100.583 92.7375C99.7691 92.6124 99.1433 91.9865 99.0181 91.2355C98.8304 89.8587 97.829 89.1702 97.078 89.8587Z" fill="white" fill-opacity="0.1"/>
<path d="M78.21 124.4C79.938 124.4 81.372 125.006 82.512 126.218C83.664 127.43 84.24 128.924 84.24 130.7C84.24 132.464 83.664 133.958 82.512 135.182C81.372 136.394 79.938 137 78.21 137H73.26V124.4H78.21ZM78.21 135.02C79.398 135.02 80.364 134.612 81.108 133.796C81.864 132.98 82.242 131.948 82.242 130.7C82.242 129.44 81.864 128.408 81.108 127.604C80.364 126.788 79.398 126.38 78.21 126.38H75.33V135.02H78.21ZM90.2492 137.234C88.9292 137.234 87.8072 136.778 86.8832 135.866C85.9592 134.954 85.4972 133.832 85.4972 132.5C85.4972 131.168 85.9592 130.046 86.8832 129.134C87.8072 128.222 88.9292 127.766 90.2492 127.766C91.5812 127.766 92.7032 128.222 93.6152 129.134C94.5392 130.046 95.0012 131.168 95.0012 132.5C95.0012 133.832 94.5392 134.954 93.6152 135.866C92.7032 136.778 91.5812 137.234 90.2492 137.234ZM88.2512 134.534C88.7912 135.074 89.4572 135.344 90.2492 135.344C91.0412 135.344 91.7072 135.074 92.2472 134.534C92.7872 133.994 93.0572 133.316 93.0572 132.5C93.0572 131.684 92.7872 131.006 92.2472 130.466C91.7072 129.926 91.0412 129.656 90.2492 129.656C89.4572 129.656 88.7912 129.926 88.2512 130.466C87.7112 131.006 87.4412 131.684 87.4412 132.5C87.4412 133.316 87.7112 133.994 88.2512 134.534ZM101.007 137.234C99.651 137.234 98.517 136.778 97.605 135.866C96.705 134.954 96.255 133.832 96.255 132.5C96.255 131.156 96.705 130.034 97.605 129.134C98.517 128.222 99.651 127.766 101.007 127.766C101.883 127.766 102.681 127.976 103.401 128.396C104.121 128.816 104.661 129.38 105.021 130.088L103.347 131.06C103.143 130.628 102.831 130.292 102.411 130.052C102.003 129.8 101.529 129.674 100.989 129.674C100.197 129.674 99.531 129.944 98.991 130.484C98.463 131.024 98.199 131.696 98.199 132.5C98.199 133.304 98.463 133.976 98.991 134.516C99.531 135.056 100.197 135.326 100.989 135.326C101.517 135.326 101.991 135.2 102.411 134.948C102.843 134.696 103.167 134.36 103.383 133.94L105.057 134.894C104.673 135.614 104.121 136.184 103.401 136.604C102.681 137.024 101.883 137.234 101.007 137.234ZM111.484 129.872H109.252V134.192C109.252 134.564 109.336 134.834 109.504 135.002C109.672 135.158 109.918 135.248 110.242 135.272C110.578 135.284 110.992 135.278 111.484 135.254V137C109.996 137.18 108.928 137.054 108.28 136.622C107.632 136.178 107.308 135.368 107.308 134.192V129.872H105.652V128H107.308V126.056L109.252 125.48V128H111.484V129.872ZM117.126 137.234C115.806 137.234 114.684 136.778 113.76 135.866C112.836 134.954 112.374 133.832 112.374 132.5C112.374 131.168 112.836 130.046 113.76 129.134C114.684 128.222 115.806 127.766 117.126 127.766C118.458 127.766 119.58 128.222 120.492 129.134C121.416 130.046 121.878 131.168 121.878 132.5C121.878 133.832 121.416 134.954 120.492 135.866C119.58 136.778 118.458 137.234 117.126 137.234ZM115.128 134.534C115.668 135.074 116.334 135.344 117.126 135.344C117.918 135.344 118.584 135.074 119.124 134.534C119.664 133.994 119.934 133.316 119.934 132.5C119.934 131.684 119.664 131.006 119.124 130.466C118.584 129.926 117.918 129.656 117.126 129.656C116.334 129.656 115.668 129.926 115.128 130.466C114.588 131.006 114.318 131.684 114.318 132.5C114.318 133.316 114.588 133.994 115.128 134.534ZM125.58 129.512C126.072 128.396 126.996 127.838 128.352 127.838V129.944C127.608 129.896 126.96 130.076 126.408 130.484C125.856 130.88 125.58 131.54 125.58 132.464V137H123.636V128H125.58V129.512ZM131.218 130.484C131.218 130.784 131.38 131.024 131.704 131.204C132.04 131.372 132.442 131.522 132.91 131.654C133.39 131.774 133.87 131.918 134.35 132.086C134.83 132.254 135.232 132.542 135.556 132.95C135.892 133.346 136.06 133.85 136.06 134.462C136.06 135.326 135.724 136.004 135.052 136.496C134.392 136.988 133.558 137.234 132.55 137.234C131.662 137.234 130.9 137.048 130.264 136.676C129.628 136.304 129.166 135.788 128.878 135.128L130.552 134.156C130.864 135.02 131.53 135.452 132.55 135.452C133.57 135.452 134.08 135.116 134.08 134.444C134.08 134.156 133.912 133.922 133.576 133.742C133.252 133.562 132.85 133.412 132.37 133.292C131.902 133.16 131.428 133.01 130.948 132.842C130.468 132.674 130.06 132.398 129.724 132.014C129.4 131.618 129.238 131.12 129.238 130.52C129.238 129.692 129.55 129.026 130.174 128.522C130.81 128.018 131.596 127.766 132.532 127.766C133.276 127.766 133.936 127.934 134.512 128.27C135.1 128.594 135.55 129.05 135.862 129.638L134.224 130.556C133.912 129.872 133.348 129.53 132.532 129.53C132.16 129.53 131.848 129.614 131.596 129.782C131.344 129.938 131.218 130.172 131.218 130.484Z" fill="white" fill-opacity="0.4"/>
<path d="M73.35 110V104.85L85.3 92.55C87.9667 89.75 89.3 87.4167 89.3 85.55C89.3 84.1833 88.8667 83.0833 88 82.25C87.1667 81.4167 86.0833 81 84.75 81C82.1167 81 80.1667 82.3667 78.9 85.1L73.1 81.7C74.2 79.3 75.7833 77.4667 77.85 76.2C79.9167 74.9333 82.1833 74.3 84.65 74.3C87.8167 74.3 90.5333 75.3 92.8 77.3C95.0667 79.2667 96.2 81.9333 96.2 85.3C96.2 88.9333 94.2833 92.6667 90.45 96.5L83.6 103.35H96.75V110H73.35ZM113.824 110.7C109.458 110.7 106.024 109.05 103.524 105.75C101.058 102.417 99.8242 98 99.8242 92.5C99.8242 87 101.058 82.6 103.524 79.3C106.024 75.9667 109.458 74.3 113.824 74.3C118.224 74.3 121.658 75.9667 124.124 79.3C126.591 82.6 127.824 87 127.824 92.5C127.824 98 126.591 102.417 124.124 105.75C121.658 109.05 118.224 110.7 113.824 110.7ZM108.524 101.05C109.724 102.983 111.491 103.95 113.824 103.95C116.158 103.95 117.924 102.967 119.124 101C120.358 99.0333 120.974 96.2 120.974 92.5C120.974 88.7667 120.358 85.9167 119.124 83.95C117.924 81.9833 116.158 81 113.824 81C111.491 81 109.724 81.9833 108.524 83.95C107.324 85.9167 106.724 88.7667 106.724 92.5C106.724 96.2333 107.324 99.0833 108.524 101.05ZM145.318 110.7C140.952 110.7 137.518 109.05 135.018 105.75C132.552 102.417 131.318 98 131.318 92.5C131.318 87 132.552 82.6 135.018 79.3C137.518 75.9667 140.952 74.3 145.318 74.3C149.718 74.3 153.152 75.9667 155.618 79.3C158.085 82.6 159.318 87 159.318 92.5C159.318 98 158.085 102.417 155.618 105.75C153.152 109.05 149.718 110.7 145.318 110.7ZM140.018 101.05C141.218 102.983 142.985 103.95 145.318 103.95C147.652 103.95 149.418 102.967 150.618 101C151.852 99.0333 152.468 96.2 152.468 92.5C152.468 88.7667 151.852 85.9167 150.618 83.95C149.418 81.9833 147.652 81 145.318 81C142.985 81 141.218 81.9833 140.018 83.95C138.818 85.9167 138.218 88.7667 138.218 92.5C138.218 96.2333 138.818 99.0833 140.018 101.05ZM186.213 89.45V95.5H177.963V103.75H171.913V95.5H163.713V89.45H171.913V81.25H177.963V89.45H186.213Z" fill="white"/>
<path d="M308.556 23.0159C308.048 24.3492 309.381 25.6825 310.333 24.7302C311.159 23.9048 310.651 22 309.635 22C309.254 22 308.81 22.4445 308.556 23.0159Z" fill="white" fill-opacity="0.1"/>
<path d="M288.873 27.4604C288.619 28.1588 290.333 30.3175 294.46 34.4445C297.698 37.7461 300.746 40.4128 301.254 40.4128C301.698 40.4128 302.206 39.9683 302.46 39.3969C302.714 38.6985 301 36.5397 296.873 32.4128C293.635 29.1112 290.587 26.4445 290.079 26.4445C289.635 26.4445 289.127 26.8889 288.873 27.4604Z" fill="white" fill-opacity="0.1"/>
<path d="M322.397 32.4128C318.27 36.5397 316.556 38.6985 316.81 39.3969C317.063 39.9683 317.571 40.4128 318.016 40.4128C318.524 40.4128 321.571 37.7461 324.81 34.4445C328.937 30.3175 330.651 28.1588 330.397 27.4604C330.143 26.8889 329.635 26.4445 329.19 26.4445C328.683 26.4445 325.635 29.1112 322.397 32.4128Z" fill="white" fill-opacity="0.1"/>
<path d="M308.365 29.5556C307.667 30.8889 307.476 37.746 308.111 39.3968C308.619 40.7302 310.651 40.7302 311.159 39.3968C311.349 38.8254 311.54 36.6667 311.54 34.6349C311.54 30.8254 310.778 28.3492 309.635 28.3492C309.317 28.3492 308.746 28.9206 308.365 29.5556Z" fill="white" fill-opacity="0.1"/>
<path d="M283.476 39.5873C280.048 43.3968 269 57.3651 269 58C269 58.381 270.905 60.3492 273.19 62.381C275.54 64.4127 278.905 68.0952 280.746 70.5079C284.111 74.9524 284.111 75.0159 283.413 77.6825C282.841 79.9048 282.905 80.5397 283.857 81.9365C284.429 82.8889 285.635 83.9683 286.524 84.3492C287.54 84.7937 288.048 85.5556 288.048 86.5714C288.048 88.4127 290.714 91.2064 292.492 91.2064C293.317 91.2064 293.762 91.6508 293.762 92.4762C293.762 94.3175 296.556 96.9206 298.524 96.9206C299.413 96.9206 300.111 97.1746 300.111 97.4921C300.111 97.8095 300.873 98.9524 301.762 100.032C303.032 101.556 303.921 102 305.698 102C306.905 102 308.492 101.556 309.127 100.921C310.079 100.095 310.587 100.032 311.921 100.603C315.667 102.317 320.429 100.286 320.429 96.9206C320.429 96.0952 320.873 95.6508 321.698 95.6508C323.413 95.6508 326.143 92.9206 326.143 91.2064C326.143 90.381 326.587 89.9365 327.413 89.9365C329.127 89.9365 331.857 87.2064 331.857 85.4921C331.857 84.6667 332.302 84.2222 333.127 84.2222C333.889 84.2222 335.222 83.4603 336.111 82.5714C337.508 81.1746 337.698 80.5397 337.381 78.0635C337.127 75.6508 337.508 74.381 339.54 69.9365C341.635 65.5556 342.651 64.2222 346.143 61.3016C348.365 59.3968 350.27 57.5556 350.27 57.1746C350.27 56.1587 336.365 38.254 335.349 38C334.905 37.873 332.492 39.0794 330.016 40.6667L325.508 43.5873H319.667C315.73 43.5873 312.365 44.0317 309.19 44.9206L304.556 46.1905L300.048 44.9206C297.571 44.2222 293.508 42.381 290.905 40.7937C288.365 39.1429 286.016 37.873 285.698 37.873C285.381 37.873 284.365 38.6349 283.476 39.5873ZM289.381 43.6508L292.429 45.5556L285.381 54.127L278.333 62.6349L275.73 60.2857C274.333 58.9524 273.19 57.6825 273.254 57.4286C273.508 56.7937 285.762 41.6825 286.079 41.6825C286.206 41.6825 287.73 42.5714 289.381 43.6508ZM340.746 49.3016C346.968 57.3651 346.905 57.0476 342.524 60.1587L340.81 61.4286L334.714 53.8095C331.413 49.5556 328.683 45.9365 328.683 45.6825C328.683 45.0476 333.889 41.746 334.587 41.9365C334.905 42 337.635 45.3016 340.746 49.3016ZM331.921 55.3968L338.714 64.0317L336.81 68.2857C335.73 70.5714 334.778 72.6032 334.651 72.7937C334.46 72.9206 330.27 68.9841 325.317 64.0317L316.302 55.0794L311.159 54.6349L306.016 54.1905L303.286 59.0159C300.492 63.9048 299.603 64.7937 297.889 64.1587C295.921 63.3968 296.238 61.4286 299.413 55.8413L302.651 50.254L307.857 48.5397C311.921 47.2698 314.524 46.8889 319.159 46.8254L325.19 46.7619L331.921 55.3968ZM298.968 47.9048C299.857 48.2857 299.54 49.1746 296.556 54.381C294.714 57.6825 293.127 60.9206 293.127 61.5556C293.127 63.6508 294.968 66.3175 296.937 66.9524C300.302 68.1587 302.333 66.8889 305.254 61.873L307.857 57.4286L311.476 57.873L315.032 58.254L324.746 67.9048C332.683 75.8413 334.397 77.8095 334.27 79.1429C334.143 80.2857 333.635 80.7937 332.492 80.9206C331.222 81.0476 329.762 79.9048 325.19 75.3333C319.476 69.5556 318.143 68.7937 317.444 70.6349C317.19 71.3333 318.841 73.4286 322.905 77.4921C327.54 82.1905 328.746 83.7143 328.556 84.9206C328.429 85.9365 327.857 86.5079 326.841 86.6349C325.698 86.8254 324.302 85.873 321 82.5714C316.937 78.5079 316.556 78.3175 315.603 79.2698C314.587 80.2857 314.841 80.6667 318.778 84.7937C322.016 88.0952 323.032 89.5556 322.841 90.6984C322.524 93.2381 320.111 92.9206 316.81 89.9365C314.206 87.4603 313.889 87.3333 312.937 88.2857C311.984 89.2381 312.111 89.4921 314.651 92.0952C317.952 95.4603 318.143 97.873 315.032 97.873C313.317 97.873 313.127 97.6825 313.317 96.0317C313.635 93.3651 312.302 90.6349 310.206 89.5556C309.063 88.9841 308.365 88.0952 308.365 87.3333C308.365 85.1746 307.095 83.5238 304.81 82.5714C303.413 82 302.651 81.2381 302.651 80.4762C302.651 78.8889 299.73 76.6032 297.825 76.6032C296.81 76.6032 296.048 75.9683 295.413 74.7619C294.143 72.4127 291.286 71.3333 288.619 72.2857C287.603 72.6667 286.587 72.7937 286.397 72.6032C285.254 71.5238 281.063 65.4921 281.063 64.9841C281.063 64.4127 281.698 63.5873 290.524 52.9206C295.095 47.3968 296.111 46.7619 298.968 47.9048ZM292.111 75.7143C293.508 77.1111 293.381 77.873 291.413 79.9048C289.508 81.873 287.984 82.1905 286.778 80.7302C285.762 79.5238 286.46 77.5556 288.492 75.9683C290.46 74.4444 290.841 74.381 292.111 75.7143ZM299.349 81.619C299.54 82.6349 298.841 83.8413 297.19 85.5556C294.651 88.1587 292.302 88.7937 291.603 87.0159C290.968 85.3651 291.159 84.9841 293.571 82.3175C296.238 79.2698 298.968 78.9524 299.349 81.619ZM305.063 87.3333C305.254 88.3492 304.556 89.5556 302.905 91.2698C300.365 93.873 298.016 94.5079 297.317 92.7302C296.683 91.0794 296.873 90.6984 299.286 88.0317C301.952 84.9841 304.683 84.6667 305.063 87.3333ZM309.952 93.8095C310.27 94.7619 309.889 95.6508 308.619 96.9841C306.714 98.9524 305.254 99.2698 304.048 98.0635C302.968 96.9841 303.095 96.0317 304.619 94.127C306.27 92.0317 309.317 91.8413 309.952 93.8095Z" fill="white" fill-opacity="0.1"/>
<path d="M303.73 124.4H305.8V137H303.73V131.546H298.33V137H296.26V124.4H298.33V129.566H303.73V124.4ZM315.321 128H317.265V137H315.321V135.704C314.589 136.724 313.539 137.234 312.171 137.234C310.935 137.234 309.879 136.778 309.003 135.866C308.127 134.942 307.689 133.82 307.689 132.5C307.689 131.168 308.127 130.046 309.003 129.134C309.879 128.222 310.935 127.766 312.171 127.766C313.539 127.766 314.589 128.27 315.321 129.278V128ZM310.443 134.57C310.983 135.11 311.661 135.38 312.477 135.38C313.293 135.38 313.971 135.11 314.511 134.57C315.051 134.018 315.321 133.328 315.321 132.5C315.321 131.672 315.051 130.988 314.511 130.448C313.971 129.896 313.293 129.62 312.477 129.62C311.661 129.62 310.983 129.896 310.443 130.448C309.903 130.988 309.633 131.672 309.633 132.5C309.633 133.328 309.903 134.018 310.443 134.57ZM324.624 127.766C325.86 127.766 326.916 128.228 327.792 129.152C328.668 130.064 329.106 131.18 329.106 132.5C329.106 133.832 328.668 134.954 327.792 135.866C326.916 136.778 325.86 137.234 324.624 137.234C323.256 137.234 322.206 136.73 321.474 135.722V140.6H319.53V128H321.474V129.296C322.206 128.276 323.256 127.766 324.624 127.766ZM322.284 134.57C322.824 135.11 323.502 135.38 324.318 135.38C325.134 135.38 325.812 135.11 326.352 134.57C326.892 134.018 327.162 133.328 327.162 132.5C327.162 131.672 326.892 130.988 326.352 130.448C325.812 129.896 325.134 129.62 324.318 129.62C323.502 129.62 322.824 129.896 322.284 130.448C321.744 130.988 321.474 131.672 321.474 132.5C321.474 133.328 321.744 134.018 322.284 134.57ZM335.962 127.766C337.198 127.766 338.254 128.228 339.13 129.152C340.006 130.064 340.444 131.18 340.444 132.5C340.444 133.832 340.006 134.954 339.13 135.866C338.254 136.778 337.198 137.234 335.962 137.234C334.594 137.234 333.544 136.73 332.812 135.722V140.6H330.868V128H332.812V129.296C333.544 128.276 334.594 127.766 335.962 127.766ZM333.622 134.57C334.162 135.11 334.84 135.38 335.656 135.38C336.472 135.38 337.15 135.11 337.69 134.57C338.23 134.018 338.5 133.328 338.5 132.5C338.5 131.672 338.23 130.988 337.69 130.448C337.15 129.896 336.472 129.62 335.656 129.62C334.84 129.62 334.162 129.896 333.622 130.448C333.082 130.988 332.812 131.672 332.812 132.5C332.812 133.328 333.082 134.018 333.622 134.57ZM347.921 128H349.991L346.535 137.288C345.671 139.616 344.207 140.72 342.143 140.6V138.782C342.755 138.818 343.247 138.686 343.619 138.386C343.991 138.098 344.297 137.642 344.537 137.018L344.627 136.838L340.811 128H342.935L345.617 134.534L347.921 128ZM360.476 124.4C361.664 124.4 362.654 124.796 363.446 125.588C364.25 126.38 364.652 127.364 364.652 128.54C364.652 129.704 364.25 130.688 363.446 131.492C362.654 132.284 361.664 132.68 360.476 132.68H357.902V137H355.832V124.4H360.476ZM360.476 130.736C361.088 130.736 361.592 130.532 361.988 130.124C362.384 129.704 362.582 129.176 362.582 128.54C362.582 127.904 362.384 127.382 361.988 126.974C361.592 126.554 361.088 126.344 360.476 126.344H357.902V130.736H360.476ZM372.819 128H374.763V137H372.819V135.704C372.087 136.724 371.037 137.234 369.669 137.234C368.433 137.234 367.377 136.778 366.501 135.866C365.625 134.942 365.187 133.82 365.187 132.5C365.187 131.168 365.625 130.046 366.501 129.134C367.377 128.222 368.433 127.766 369.669 127.766C371.037 127.766 372.087 128.27 372.819 129.278V128ZM367.941 134.57C368.481 135.11 369.159 135.38 369.975 135.38C370.791 135.38 371.469 135.11 372.009 134.57C372.549 134.018 372.819 133.328 372.819 132.5C372.819 131.672 372.549 130.988 372.009 130.448C371.469 129.896 370.791 129.62 369.975 129.62C369.159 129.62 368.481 129.896 367.941 130.448C367.401 130.988 367.131 131.672 367.131 132.5C367.131 133.328 367.401 134.018 367.941 134.57ZM382.051 129.872H379.819V134.192C379.819 134.564 379.903 134.834 380.071 135.002C380.239 135.158 380.485 135.248 380.809 135.272C381.145 135.284 381.559 135.278 382.051 135.254V137C380.563 137.18 379.495 137.054 378.847 136.622C378.199 136.178 377.875 135.368 377.875 134.192V129.872H376.219V128H377.875V126.056L379.819 125.48V128H382.051V129.872ZM385.65 126.29C385.41 126.53 385.122 126.65 384.786 126.65C384.45 126.65 384.156 126.53 383.904 126.29C383.664 126.038 383.544 125.744 383.544 125.408C383.544 125.072 383.664 124.784 383.904 124.544C384.144 124.292 384.438 124.166 384.786 124.166C385.134 124.166 385.428 124.292 385.668 124.544C385.908 124.784 386.028 125.072 386.028 125.408C386.028 125.744 385.902 126.038 385.65 126.29ZM383.814 137V128H385.758V137H383.814ZM389.545 133.328C389.689 134.012 390.019 134.54 390.535 134.912C391.051 135.272 391.681 135.452 392.425 135.452C393.457 135.452 394.231 135.08 394.747 134.336L396.349 135.272C395.461 136.58 394.147 137.234 392.407 137.234C390.943 137.234 389.761 136.79 388.861 135.902C387.961 135.002 387.511 133.868 387.511 132.5C387.511 131.156 387.955 130.034 388.843 129.134C389.731 128.222 390.871 127.766 392.263 127.766C393.583 127.766 394.663 128.228 395.503 129.152C396.355 130.076 396.781 131.198 396.781 132.518C396.781 132.722 396.757 132.992 396.709 133.328H389.545ZM389.527 131.744H394.819C394.687 131.012 394.381 130.46 393.901 130.088C393.433 129.716 392.881 129.53 392.245 129.53C391.525 129.53 390.925 129.728 390.445 130.124C389.965 130.52 389.659 131.06 389.527 131.744ZM403.225 127.766C404.257 127.766 405.091 128.096 405.727 128.756C406.363 129.416 406.681 130.322 406.681 131.474V137H404.737V131.672C404.737 131 404.557 130.484 404.197 130.124C403.837 129.764 403.345 129.584 402.721 129.584C402.037 129.584 401.485 129.8 401.065 130.232C400.645 130.652 400.435 131.3 400.435 132.176V137H398.491V128H400.435V129.152C401.023 128.228 401.953 127.766 403.225 127.766ZM413.797 129.872H411.565V134.192C411.565 134.564 411.649 134.834 411.817 135.002C411.985 135.158 412.231 135.248 412.555 135.272C412.891 135.284 413.305 135.278 413.797 135.254V137C412.309 137.18 411.241 137.054 410.593 136.622C409.945 136.178 409.621 135.368 409.621 134.192V129.872H407.965V128H409.621V126.056L411.565 125.48V128H413.797V129.872ZM416.972 130.484C416.972 130.784 417.134 131.024 417.458 131.204C417.794 131.372 418.196 131.522 418.664 131.654C419.144 131.774 419.624 131.918 420.104 132.086C420.584 132.254 420.986 132.542 421.31 132.95C421.646 133.346 421.814 133.85 421.814 134.462C421.814 135.326 421.478 136.004 420.806 136.496C420.146 136.988 419.312 137.234 418.304 137.234C417.416 137.234 416.654 137.048 416.018 136.676C415.382 136.304 414.92 135.788 414.632 135.128L416.306 134.156C416.618 135.02 417.284 135.452 418.304 135.452C419.324 135.452 419.834 135.116 419.834 134.444C419.834 134.156 419.666 133.922 419.33 133.742C419.006 133.562 418.604 133.412 418.124 133.292C417.656 133.16 417.182 133.01 416.702 132.842C416.222 132.674 415.814 132.398 415.478 132.014C415.154 131.618 414.992 131.12 414.992 130.52C414.992 129.692 415.304 129.026 415.928 128.522C416.564 128.018 417.35 127.766 418.286 127.766C419.03 127.766 419.69 127.934 420.266 128.27C420.854 128.594 421.304 129.05 421.616 129.638L419.978 130.556C419.666 129.872 419.102 129.53 418.286 129.53C417.914 129.53 417.602 129.614 417.35 129.782C417.098 129.938 416.972 130.172 416.972 130.484Z" fill="white" fill-opacity="0.4"/>
<path d="M312.65 89.2C315.017 89.9 316.933 91.1333 318.4 92.9C319.9 94.6333 320.65 96.7333 320.65 99.2C320.65 102.8 319.433 105.617 317 107.65C314.6 109.683 311.65 110.7 308.15 110.7C305.417 110.7 302.967 110.083 300.8 108.85C298.667 107.583 297.117 105.733 296.15 103.3L302.05 99.9C302.917 102.6 304.95 103.95 308.15 103.95C309.917 103.95 311.283 103.533 312.25 102.7C313.25 101.833 313.75 100.667 313.75 99.2C313.75 97.7667 313.25 96.6167 312.25 95.75C311.283 94.8833 309.917 94.45 308.15 94.45H306.65L304 90.45L310.9 81.45H297.2V75H319.2V80.7L312.65 89.2ZM347.867 86.45C347.867 89.15 347.167 91.5167 345.767 93.55H345.817L334.917 110H327.017L334.817 98.6C331.184 98.5333 328.217 97.3833 325.917 95.15C323.651 92.8833 322.517 89.9833 322.517 86.45C322.517 82.8833 323.684 79.9667 326.017 77.7C328.384 75.4333 331.434 74.3 335.167 74.3C338.934 74.3 341.984 75.4333 344.317 77.7C346.684 79.9333 347.867 82.85 347.867 86.45ZM329.367 86.45C329.367 88.1833 329.917 89.5667 331.017 90.6C332.151 91.6333 333.534 92.15 335.167 92.15C336.867 92.15 338.267 91.6333 339.367 90.6C340.467 89.5667 341.017 88.1833 341.017 86.45C341.017 84.7167 340.467 83.35 339.367 82.35C338.267 81.3167 336.867 80.8 335.167 80.8C333.534 80.8 332.151 81.3167 331.017 82.35C329.917 83.3833 329.367 84.75 329.367 86.45ZM370.904 91.8C374.137 93.7333 375.754 96.55 375.754 100.25C375.754 103.483 374.621 106.033 372.354 107.9C370.121 109.767 367.071 110.7 363.204 110.7C359.304 110.7 356.237 109.767 354.004 107.9C351.771 106.033 350.654 103.483 350.654 100.25C350.654 96.55 352.254 93.7333 355.454 91.8C353.021 90.0333 351.804 87.6167 351.804 84.55C351.804 81.3167 352.887 78.8 355.054 77C357.254 75.2 359.971 74.3 363.204 74.3C366.437 74.3 369.137 75.2 371.304 77C373.471 78.8 374.554 81.3167 374.554 84.55C374.554 87.65 373.337 90.0667 370.904 91.8ZM366.454 81.9C365.621 81.1667 364.537 80.8 363.204 80.8C361.871 80.8 360.787 81.1667 359.954 81.9C359.121 82.6333 358.704 83.6333 358.704 84.9C358.704 86.1667 359.121 87.1833 359.954 87.95C360.787 88.6833 361.871 89.05 363.204 89.05C364.537 89.05 365.621 88.6833 366.454 87.95C367.287 87.1833 367.704 86.1667 367.704 84.9C367.704 83.6333 367.287 82.6333 366.454 81.9ZM359.054 102.95C360.121 103.783 361.504 104.2 363.204 104.2C364.904 104.2 366.271 103.783 367.304 102.95C368.371 102.083 368.904 100.883 368.904 99.35C368.904 97.85 368.371 96.6833 367.304 95.85C366.271 94.9833 364.904 94.55 363.204 94.55C361.504 94.55 360.121 94.9833 359.054 95.85C358.021 96.6833 357.504 97.85 357.504 99.35C357.504 100.883 358.021 102.083 359.054 102.95ZM393.172 110.7C388.805 110.7 385.372 109.05 382.872 105.75C380.405 102.417 379.172 98 379.172 92.5C379.172 87 380.405 82.6 382.872 79.3C385.372 75.9667 388.805 74.3 393.172 74.3C397.572 74.3 401.005 75.9667 403.472 79.3C405.939 82.6 407.172 87 407.172 92.5C407.172 98 405.939 102.417 403.472 105.75C401.005 109.05 397.572 110.7 393.172 110.7ZM387.872 101.05C389.072 102.983 390.839 103.95 393.172 103.95C395.505 103.95 397.272 102.967 398.472 101C399.705 99.0333 400.322 96.2 400.322 92.5C400.322 88.7667 399.705 85.9167 398.472 83.95C397.272 81.9833 395.505 81 393.172 81C390.839 81 389.072 81.9833 387.872 83.95C386.672 85.9167 386.072 88.7667 386.072 92.5C386.072 96.2333 386.672 99.0833 387.872 101.05ZM434.066 89.45V95.5H425.816V103.75H419.766V95.5H411.566V89.45H419.766V81.25H425.816V89.45H434.066Z" fill="white"/>
</svg>
