<svg width="122" height="70" viewBox="0 0 122 70" fill="none" xmlns="http://www.w3.org/2000/svg">
<path d="M47.0312 47.9727C47.4707 48.054 47.7555 48.2412 47.8857 48.5342C48.0322 48.8271 48.0241 49.1038 47.8613 49.3643C47.6986 49.6084 47.3893 49.7223 46.9336 49.7061C37.0866 48.5505 27.3779 46.7438 17.8076 44.2861C17.0915 44.1559 16.5218 44.3838 16.0986 44.9697C15.529 45.8486 15 46.7357 14.5117 47.6309C14.3001 47.9401 13.999 48.111 13.6084 48.1436C13.2015 48.1598 12.8597 48.0703 12.583 47.875C12.29 47.6797 12.2331 47.4111 12.4121 47.0693C12.9492 46.0765 13.527 45.1081 14.1455 44.1641C14.2432 43.985 14.2594 43.806 14.1943 43.627C14.1292 43.4479 13.999 43.334 13.8037 43.2852C13.3154 43.1549 12.8271 43.0247 12.3389 42.8945C12.1924 42.9108 12.0459 42.9352 11.8994 42.9678C11.7204 43.0003 11.5332 43.0329 11.3379 43.0654C10.9147 43.1305 10.5892 43.041 10.3613 42.7969C10.1172 42.5527 10.0277 42.2842 10.0928 41.9912C10.1416 41.6982 10.3939 41.4948 10.8496 41.3809C10.8659 41.3809 10.8822 41.3809 10.8984 41.3809C10.9147 41.3809 10.931 41.3809 10.9473 41.3809C11.2077 41.0391 11.6146 40.9251 12.168 41.0391C12.2168 41.0391 12.2738 41.0472 12.3389 41.0635C12.404 41.0635 12.4691 41.0635 12.5342 41.0635C14.0479 40.7705 15.5615 40.4531 17.0752 40.1113C17.0915 40.0788 17.1077 40.0462 17.124 40.0137C17.1566 39.9811 17.181 39.9486 17.1973 39.916C17.2949 39.8184 17.3844 39.7126 17.4658 39.5986C19.0446 37.4339 20.9245 35.6354 23.1055 34.2031C23.4147 34.0566 23.7565 34.0241 24.1309 34.1055C24.5215 34.1706 24.7819 34.3415 24.9121 34.6182C25.0586 34.8786 24.9202 35.2285 24.4971 35.668C24.4808 35.7005 24.4645 35.7331 24.4482 35.7656C24.2204 36.14 23.9925 36.5143 23.7646 36.8887C23.6182 37.1816 23.3984 37.3607 23.1055 37.4258C22.8125 37.4746 22.5195 37.4339 22.2266 37.3037C21.5755 37.9385 20.957 38.6058 20.3711 39.3057C25.5957 37.971 30.7064 36.2946 35.7031 34.2764C35.752 34.2601 35.7926 34.2438 35.8252 34.2275C36.7204 33.902 38.0387 33.3161 39.7803 32.4697C41.5381 31.6234 42.9622 30.6631 44.0527 29.5889C45.1595 28.4984 45.1758 27.4242 44.1016 26.3662C43.3691 25.8128 42.417 25.4466 41.2451 25.2676C40.0895 25.0723 39.0153 24.9502 38.0225 24.9014C37.9574 24.9014 37.8923 24.9014 37.8271 24.9014C35.5648 24.7549 33.3024 24.8118 31.04 25.0723C22.8044 25.9023 15.0977 28.36 7.91992 32.4453C7.69206 32.5755 7.43978 32.722 7.16309 32.8848C6.49577 33.2591 5.81217 33.6904 5.1123 34.1787C4.41243 34.667 3.91602 35.1715 3.62305 35.6924C3.29753 36.4574 3.4847 36.9049 4.18457 37.0352C4.86816 37.1491 5.70638 37.1247 6.69922 36.9619C7.67578 36.7829 8.43262 36.6283 8.96973 36.498C9.05111 36.4655 9.12435 36.4411 9.18945 36.4248C13.0469 35.4157 16.7741 34.0566 20.3711 32.3477C20.4688 32.2988 20.5664 32.2581 20.6641 32.2256C21.0547 32.0791 21.4046 32.0954 21.7139 32.2744C22.0394 32.4535 22.2266 32.6976 22.2754 33.0068C22.3242 33.2998 22.137 33.5521 21.7139 33.7637C21.0628 34.0566 19.6468 34.6344 17.4658 35.4971C15.3011 36.3597 12.9329 37.1654 10.3613 37.9141C7.78971 38.6465 5.58431 38.972 3.74512 38.8906C1.90592 38.793 0.994466 37.9385 1.01074 36.3271C1.07585 35.7249 1.32812 35.1878 1.76758 34.7158C2.20703 34.2438 2.6709 33.8288 3.15918 33.4707C3.25684 33.3893 3.35449 33.3161 3.45215 33.251C4.96582 32.0303 6.58529 30.9642 8.31055 30.0527C11.7773 28.2624 15.3906 26.8626 19.1504 25.8535C23.1055 24.6328 27.2396 23.7539 31.5527 23.2168C35.8822 22.6634 40.057 23.0459 44.0771 24.3643C45.3304 24.82 46.2337 25.5199 46.7871 26.4639C47.3568 27.3916 47.2673 28.474 46.5186 29.7109C45.4932 31.1595 44.1748 32.3232 42.5635 33.2021C40.9521 34.0811 39.3245 34.8216 37.6807 35.4238C37.5016 35.5052 37.3145 35.5866 37.1191 35.668C31.2109 38.0605 25.1562 39.9974 18.9551 41.4785C18.6621 41.5436 18.4261 41.6901 18.2471 41.918C18.1494 42.0645 18.125 42.2191 18.1738 42.3818C18.2227 42.5283 18.3285 42.626 18.4912 42.6748C27.8662 45.0674 37.3796 46.8333 47.0312 47.9727ZM42.6611 41.2832C42.4333 41.332 42.1973 41.3239 41.9531 41.2588C41.7253 41.1937 41.5462 41.0635 41.416 40.8682C41.2695 40.5915 41.2451 40.3066 41.3428 40.0137C41.5544 39.5091 41.9287 39.2487 42.4658 39.2324C42.6774 39.0859 42.9134 39.0208 43.1738 39.0371C43.4505 39.0534 43.6865 39.1429 43.8818 39.3057C44.2236 39.6149 44.2643 39.973 44.0039 40.3799C43.8574 40.5915 43.6621 40.7868 43.418 40.9658C43.1738 41.1286 42.9215 41.2344 42.6611 41.2832ZM45.835 44.6279C46.193 44.5465 46.4697 44.6035 46.665 44.7988C46.8766 44.9941 46.958 45.222 46.9092 45.4824C46.8604 45.7266 46.6488 45.9137 46.2744 46.0439C45.1188 46.3206 43.9469 46.4508 42.7588 46.4346C42.6286 46.4346 42.4902 46.4346 42.3438 46.4346C41.9857 46.4508 41.6195 46.4427 41.2451 46.4102C40.8708 46.3776 40.5208 46.2881 40.1953 46.1416C39.6582 45.8161 39.3896 45.4092 39.3896 44.9209C39.3734 44.4326 39.5036 43.9362 39.7803 43.4316C40.057 42.9271 40.3581 42.5039 40.6836 42.1621C40.8952 41.9505 41.1637 41.861 41.4893 41.8936C41.8311 41.9261 42.0915 42.0482 42.2705 42.2598C42.4658 42.4551 42.4495 42.6911 42.2217 42.9678C42.0426 43.1794 41.8636 43.4072 41.6846 43.6514C41.5055 43.8955 41.3753 44.1559 41.2939 44.4326C41.2288 44.7093 41.2614 44.8802 41.3916 44.9453C41.5218 44.9941 41.7008 45.0104 41.9287 44.9941C42.0101 44.9779 42.0996 44.9697 42.1973 44.9697C43.4342 45.0186 44.6468 44.9046 45.835 44.6279ZM60.459 44.3594C60.8171 44.3594 61.0531 44.4652 61.167 44.6768C61.2809 44.8883 61.2646 45.1081 61.1182 45.3359C60.988 45.5638 60.7438 45.694 60.3857 45.7266C56.7399 45.9056 53.0859 46.0114 49.4238 46.0439C49.2936 46.0439 49.139 46.0439 48.96 46.0439C48.4554 46.0602 47.8776 46.0521 47.2266 46.0195C46.5755 45.987 46.0059 45.8568 45.5176 45.6289C45.0293 45.401 44.777 45.0023 44.7607 44.4326C44.8584 43.6839 45.363 43.0329 46.2744 42.4795C47.1859 41.9261 48.0078 41.6413 48.7402 41.625C49.3587 41.6576 49.79 41.8854 50.0342 42.3086C50.2946 42.7318 50.1888 43.1712 49.7168 43.627C49.4727 43.806 49.2041 43.863 48.9111 43.7979C48.6344 43.7165 48.431 43.57 48.3008 43.3584C48.1868 43.1305 48.2357 42.8945 48.4473 42.6504C48.3008 42.7969 48.0566 43.0247 47.7148 43.334C47.5358 43.513 47.3486 43.6921 47.1533 43.8711C46.9743 44.0339 46.8278 44.1722 46.7139 44.2861C46.5999 44.4001 46.543 44.457 46.543 44.457C46.5592 44.5059 46.6895 44.5465 46.9336 44.5791C47.1777 44.6117 47.4463 44.6361 47.7393 44.6523C48.0485 44.6523 48.3008 44.6523 48.4961 44.6523C48.5938 44.6523 48.6589 44.6523 48.6914 44.6523C49.6029 44.6849 50.5225 44.6849 51.4502 44.6523C51.7757 44.6361 52.1094 44.6279 52.4512 44.6279C55.1204 44.5628 57.7897 44.4733 60.459 44.3594ZM81.9678 44.5059C82.3421 44.5059 82.5863 44.6198 82.7002 44.8477C82.8141 45.0592 82.7979 45.279 82.6514 45.5068C82.5212 45.7347 82.2689 45.8568 81.8945 45.873C79.4206 45.9056 76.9385 45.9382 74.4482 45.9707C71.958 46.0033 69.4759 46.0358 67.002 46.0684C66.8392 46.0684 66.652 46.0765 66.4404 46.0928C65.9196 46.1416 65.3825 46.1335 64.8291 46.0684C64.2757 46.0033 63.8688 45.7347 63.6084 45.2627C63.4294 44.8395 63.4294 44.4489 63.6084 44.0908C62.1761 44.986 60.8496 46.0439 59.6289 47.2646C59.4173 47.4437 59.1569 47.5251 58.8477 47.5088C58.5384 47.4925 58.2943 47.3949 58.1152 47.2158C57.9362 47.0368 57.9443 46.7926 58.1396 46.4834C59.0186 45.2464 60.109 43.57 61.4111 41.4541C62.7295 39.3382 63.9095 37.4095 64.9512 35.668C64.7721 35.5378 64.6663 35.3913 64.6338 35.2285C64.6012 35.0495 64.6989 34.8786 64.9268 34.7158C65.6429 34.2275 66.3021 33.6742 66.9043 33.0557C67.1159 32.8766 67.3763 32.7952 67.6855 32.8115C67.9948 32.8278 68.2389 32.9336 68.418 33.1289C68.597 33.3079 68.5889 33.5439 68.3936 33.8369C67.2868 35.3506 66.3021 36.9131 65.4395 38.5244C64.6582 39.9893 63.7793 41.4215 62.8027 42.8213C63.5352 42.3818 64.3083 41.9668 65.1221 41.5762C65.2686 41.5111 65.4476 41.4948 65.6592 41.5273C65.8708 41.5599 66.0579 41.6413 66.2207 41.7715C66.3835 41.8854 66.4486 42.04 66.416 42.2354C66.3672 42.512 66.3102 42.7236 66.2451 42.8701C66.1963 43.0003 66.1149 43.1794 66.001 43.4072C65.7894 43.749 65.5615 44.0745 65.3174 44.3838C65.2035 44.7581 65.3499 44.8639 65.7568 44.7012C65.9684 44.7988 66.2451 44.8395 66.5869 44.8232C66.9287 44.807 67.2705 44.7826 67.6123 44.75C67.9053 44.7012 68.1576 44.6768 68.3691 44.6768C69.248 44.6605 70.127 44.6523 71.0059 44.6523L81.9678 44.5059ZM98.7402 43.627C99.082 43.627 99.3506 43.7327 99.5459 43.9443C99.7412 44.1396 99.8145 44.3512 99.7656 44.5791C99.7331 44.807 99.5296 44.9372 99.1553 44.9697C98.374 45.0186 97.5846 45.0755 96.7871 45.1406C93.9551 45.4336 91.1556 45.458 88.3887 45.2139C87.4284 45.1162 86.6715 44.8314 86.1182 44.3594C85.4997 44.7826 84.8242 45.1732 84.0918 45.5312C83.3757 45.8893 82.7165 46.0765 82.1143 46.0928C81.512 46.109 81.0889 45.8242 80.8447 45.2383C80.682 44.6361 80.8447 44.0827 81.333 43.5781C81.805 43.0573 82.277 42.6504 82.749 42.3574C84.1325 41.4948 85.6543 41.1042 87.3145 41.1855C87.6074 41.2018 87.819 41.2913 87.9492 41.4541C88.0794 41.6169 88.1201 41.7959 88.0713 41.9912C88.0387 42.1865 87.9248 42.3411 87.7295 42.4551C87.8923 42.6504 87.8841 42.8864 87.7051 43.1631C87.5911 43.3584 87.7539 43.513 88.1934 43.627C88.6328 43.7246 89.1862 43.7979 89.8535 43.8467C90.5208 43.8792 91.1312 43.8955 91.6846 43.8955C92.238 43.8955 92.5635 43.8955 92.6611 43.8955C94.6956 43.8467 96.722 43.7572 98.7402 43.627ZM83.9453 43.4072C83.8314 43.4723 83.7012 43.5618 83.5547 43.6758C83.4082 43.7734 83.2861 43.8711 83.1885 43.9688C83.1071 44.0501 83.0908 44.1071 83.1396 44.1396C83.1885 44.1722 83.3512 44.1478 83.6279 44.0664C84.4255 43.7572 85.1823 43.2852 85.8984 42.6504C85.2148 42.748 84.5638 43.0003 83.9453 43.4072ZM108.164 41.1123C108.311 41.3076 108.343 41.5273 108.262 41.7715C108.132 42.0807 107.855 42.2679 107.432 42.333C105.983 42.512 104.575 42.8457 103.208 43.334C101.857 43.806 100.669 44.6523 99.6436 45.873C99.5296 46.0358 99.3669 46.1579 99.1553 46.2393C98.9437 46.3044 98.7402 46.3369 98.5449 46.3369C98.3333 46.3369 98.1543 46.2962 98.0078 46.2148C97.9264 46.1823 97.8695 46.1172 97.8369 46.0195C97.7881 45.9056 97.8044 45.751 97.8857 45.5557L99.79 41.6738C99.904 41.446 100.059 41.2832 100.254 41.1855C100.465 41.0879 100.677 41.0309 100.889 41.0146C101.247 40.9984 101.507 41.0879 101.67 41.2832C101.702 41.332 101.719 41.3971 101.719 41.4785C101.735 41.5599 101.711 41.6657 101.646 41.7959L101.23 42.6504C103.33 41.6576 105.381 41.0635 107.383 40.8682C107.725 40.8193 107.985 40.9007 108.164 41.1123ZM120.42 33.5439C120.648 33.5277 120.876 33.5765 121.104 33.6904C121.331 33.7881 121.453 33.9753 121.47 34.252C121.421 35.0007 121.193 35.7005 120.786 36.3516C120.396 36.9863 119.948 37.5885 119.443 38.1582C119.362 38.2721 119.272 38.3861 119.175 38.5C118.052 39.8672 116.831 41.153 115.513 42.3574C115.073 42.748 114.626 43.1468 114.17 43.5537C114.154 43.5863 114.129 43.6188 114.097 43.6514C114.08 43.7002 114.064 43.7409 114.048 43.7734C112.371 46.8984 111.118 50.1862 110.288 53.6367C110.207 53.8971 110.02 54.0436 109.727 54.0762C109.434 54.1087 109.165 54.0436 108.921 53.8809C108.693 53.7344 108.604 53.5065 108.652 53.1973C109.271 50.6419 110.117 48.1761 111.191 45.7998C109.775 46.7275 108.245 47.2158 106.602 47.2646C106.292 47.2484 106.064 47.1426 105.918 46.9473C105.755 46.7357 105.755 46.4915 105.918 46.2148C107.318 44.0501 109.295 42.7806 111.851 42.4062C112.257 42.3737 112.55 42.4958 112.729 42.7725C112.974 42.3167 113.234 41.8691 113.511 41.4297C114.634 39.5905 115.887 37.849 117.271 36.2051C117.417 36.026 117.572 35.8389 117.734 35.6436C118.092 35.1553 118.491 34.7077 118.931 34.3008C119.37 33.8776 119.867 33.6253 120.42 33.5439ZM111.484 43.8711C110.28 44.1803 109.263 44.7581 108.433 45.6045C109.491 45.2139 110.508 44.6361 111.484 43.8711Z" fill="#201F50"/>
</svg>
