<svg width="70" height="70" viewBox="0 0 70 70" fill="none" xmlns="http://www.w3.org/2000/svg">
<circle cx="35" cy="35" r="35" fill="#2AA7FF" fill-opacity="0.15"/>
<path d="M27.8594 22.1797C27.8594 24.875 28.2578 26.1641 29.5703 27.6406C30.5078 28.7188 32.4297 29.8438 33.3438 29.8438C33.7422 29.8438 33.7656 29.9844 33.6719 31.4141C33.5312 33.4766 32.8984 34.6953 31.3281 35.9375C30.6484 36.4766 29.8516 37.25 29.5469 37.6953C29.1484 38.2344 28.7266 38.5156 28.1406 38.6328C26.4766 38.9375 25.0469 39.7344 23.8984 41C22.3281 42.7109 22 43.8125 22 47.2344V50H24.5781H27.1562V47.75C27.1562 45.5234 27.3438 44.75 28.0703 44.2109C28.6094 43.7891 28.7031 43.8359 29.0312 44.6094C29.4766 45.7109 30.8828 46.9531 32.4766 47.7031C33.8125 48.3359 34.1641 48.4062 35.7812 48.3359C38.3359 48.1953 39.8594 47.4219 42.2969 44.9609C43.8438 43.4141 44.4062 42.6172 45.2969 40.8359C46.8203 37.7656 47.3828 35.3047 47.2656 32.4453C47.125 29 45.8594 26.7969 43.2344 25.4375C42.1094 24.8516 41.8281 24.8047 37.9844 24.7344C34 24.6406 33.9531 24.6406 33.4844 24.0547C33.1094 23.5859 33.0156 23.0938 33.0156 21.7344V20H30.4375H27.8594V22.1797ZM31.375 22.9766C31.375 24.3359 31.9844 25.4375 33.0625 26.0234C33.6953 26.3516 34.6328 26.4453 37.9844 26.5625L42.1094 26.6797L43.1406 27.3828C43.7969 27.875 44.3828 28.5547 44.8516 29.4922C45.5078 30.7578 45.5547 31.0625 45.5312 33.1016C45.4375 40.5312 39.4609 47.6562 34.2812 46.5078C32.4531 46.0859 31.2109 45.0781 30.4609 43.4141C29.7578 41.7969 29.3359 41.6797 27.625 42.5469C26.0547 43.3672 25.6562 44.0703 25.5156 46.3203L25.3984 48.2422L24.4844 48.3125L23.5703 48.3828L23.6875 46.2969C23.7812 44.4688 23.875 44.0234 24.4844 43.0625C25.4219 41.5156 26.9922 40.5547 28.7969 40.4375C30.1328 40.3438 30.1562 40.3203 30.5781 39.4062C30.8359 38.8438 31.5391 38.0234 32.3125 37.4141C34.375 35.75 35.3594 33.9922 35.3594 31.9531C35.3828 30.1484 35.4531 30.0781 37.4922 30.0781C39.7188 30.0781 39.8125 30.1953 39.8125 32.7969C39.8125 34.7656 39.3438 36.125 38.3359 37.0625C37.8672 37.4844 37.7266 37.5078 36.8594 37.2969C36.0391 37.0625 35.6875 37.0859 34.7969 37.4375C30.6953 39.0078 31.7031 44.8906 36.0625 44.8906C37.9375 44.8906 39.2969 43.8594 39.8594 41.9609C40.0938 41.1875 40.0703 40.8594 39.7422 39.8984L39.3203 38.75L40.1641 37.5547C41.1953 36.0547 41.6875 34.4141 41.6875 32.4453C41.6875 30.5938 41.1953 29.4922 40.0703 28.7422C39.3438 28.25 38.9922 28.2031 36.4141 28.2031C33.7188 28.2031 33.4609 28.1562 32.2891 27.5469C30.6484 26.6797 29.7344 25.2969 29.5703 23.3047L29.4297 21.875H30.4141H31.375V22.9766ZM37.5625 39.5938C38.4297 40.4609 38.3828 41.6094 37.4922 42.5234C37.0234 42.9922 36.5781 43.2031 36.0625 43.2031C35.5469 43.2031 35.1016 42.9922 34.6328 42.5234C33.7656 41.6562 33.7422 40.6719 34.5625 39.7109C35.3828 38.75 36.6484 38.7031 37.5625 39.5938Z" fill="#2AA7FF"/>
</svg>
