<svg width="70" height="70" viewBox="0 0 70 70" fill="none" xmlns="http://www.w3.org/2000/svg">
<circle cx="35" cy="35" r="35" fill="#FF8C75" fill-opacity="0.15"/>
<path d="M25.0787 20.2916C23.1808 20.8774 21.2829 23.4548 20.4393 26.5477C19.8536 28.6799 19.8536 33.7879 20.4393 35.9201C21.8921 41.2156 25.5473 43.6993 29.2026 41.8717C30.913 41.0281 31.6628 39.7394 31.6863 37.5838C31.6863 36.3185 31.5691 35.8264 31.0536 34.8892C30.4444 33.7879 30.4444 33.7645 30.8427 32.9678C31.2411 32.1712 31.2879 32.1712 31.6628 32.5929C32.4126 33.413 32.6001 35.3812 32.6235 42.5277C32.6704 49.8382 32.7407 50.4006 33.6545 49.8382C34.0294 49.6039 34.0528 48.9244 34.0528 41.9888C34.0294 36.6231 33.9591 34.116 33.7482 33.3896C33.4202 32.3352 32.2252 30.7653 31.6863 30.7653C31.5223 30.7653 31.1708 30.2967 30.913 29.7109L30.4444 28.6565L31.0771 27.5552C31.944 26.0088 31.9206 23.7594 31.0536 22.2598C29.9524 20.3853 27.3749 19.5418 25.0787 20.2916ZM27.867 21.6272C28.1247 21.6272 28.7105 21.9786 29.1557 22.4004C29.8821 23.0565 30.0227 23.3845 30.1164 24.3686C30.2804 25.8916 29.8821 27.0632 28.9214 27.977L28.1482 28.6799L28.9448 29.4766C30.2804 30.8122 29.9524 32.4758 28.195 33.4833C27.7733 33.7176 27.7967 33.7645 28.4996 34.1862C29.6243 34.8423 30.257 36.3419 30.1398 37.9587C30.0461 39.1068 29.9055 39.388 29.1791 40.0675C28.3825 40.7938 27.7733 40.9813 26.5549 40.8875C24.3055 40.7001 22.6653 38.7553 21.8452 35.2875C21.3531 33.2256 21.3531 29.2423 21.8452 27.1803C22.5247 24.2983 24.0712 22.0724 25.6879 21.7209C26.0394 21.6506 26.4377 21.5569 26.5549 21.51C26.6954 21.4631 26.9298 21.4631 27.0938 21.5334C27.2812 21.5803 27.6093 21.6272 27.867 21.6272Z" fill="#FF8C75"/>
<path d="M40.5432 20.5962C38.8328 21.4397 38.083 22.7284 38.0595 24.8841C38.0595 26.1494 38.1767 26.6414 38.6687 27.5552L39.3014 28.6565L38.8328 29.7109C38.575 30.2967 38.2235 30.7653 38.0595 30.7653C37.5206 30.7653 36.3256 32.3352 35.9976 33.3896C35.7867 34.116 35.7164 36.6231 35.693 41.9888C35.693 48.9244 35.7164 49.6039 36.0913 49.8382C37.0051 50.4006 37.0754 49.8382 37.1223 42.5277C37.1457 35.3812 37.3332 33.413 38.083 32.5929C38.4579 32.1712 38.5047 32.1712 38.9031 32.9678C39.3014 33.7645 39.3014 33.7879 38.6922 34.8892C38.1767 35.8264 38.0595 36.3185 38.0595 37.5838C38.083 39.7394 38.8328 41.0281 40.5432 41.8717C44.1985 43.6993 47.8537 41.2156 49.3065 35.9201C49.8922 33.7879 49.8922 28.6799 49.3065 26.5477C47.8537 21.2523 44.1985 18.7686 40.5432 20.5962ZM44.714 22.0021C46.9165 23.1033 48.2755 26.618 48.2755 31.2339C48.2755 36.9277 46.3073 40.6298 43.1909 40.8875C41.9725 40.9813 41.3633 40.7938 40.5667 40.0675C39.8403 39.388 39.6997 39.1068 39.606 37.9587C39.4888 36.3419 40.1215 34.8423 41.2462 34.1862C41.9491 33.7645 41.9725 33.7176 41.5508 33.4833C39.7934 32.4758 39.4654 30.8122 40.801 29.4766L41.5976 28.6799L40.8244 27.977C39.8637 27.0632 39.4654 25.8916 39.606 24.392C39.8403 21.9786 42.3709 20.8071 44.714 22.0021Z" fill="#FF8C75"/>
</svg>
