<svg width="46" height="40" viewBox="0 0 46 40" fill="none" xmlns="http://www.w3.org/2000/svg">
<path d="M12.5271 1.13263C8.02592 3.45467 4.16776 7.38427 2.34585 11.5282C0.666842 15.3149 0.309605 18.0299 0.0952632 28.6756C-0.0833553 37.8209 -0.0476316 38.6425 0.523947 39.2855C1.13125 39.9643 1.6671 40 9.49059 40C17.6713 40 17.8142 40 18.3501 39.2141C18.8145 38.5353 18.9216 37.0707 18.9216 30.4975C18.9216 20.7449 19.2432 21.3165 13.5988 21.1379L9.77638 20.995L10.0622 18.6372C10.4194 15.7436 12.027 12.2784 13.7417 10.778C14.4205 10.1707 15.7422 9.24191 16.6711 8.70605C20.0291 6.77697 20.1362 6.52691 18.743 3.31178C17.064 -0.439213 16.1709 -0.760727 12.5271 1.13263Z" fill="#6366F1"/>
<path d="M38.784 1.09691C34.0685 3.52612 30.4961 7.09849 28.4956 11.2782C26.7451 14.9934 26.3879 17.7799 26.1735 28.6756C25.9949 37.8209 26.0307 38.6425 26.6022 39.2855C27.2095 39.9643 27.7811 40 35.5332 40C43.1066 40 43.8568 39.9286 44.3926 39.357C44.9285 38.7854 44.9999 37.6422 44.9999 30.6404C44.9999 20.7092 45.3214 21.3165 39.6057 21.1379L35.7118 20.995L35.9261 19.5303C36.712 13.9574 38.5339 11.0638 42.6779 8.74178C45.0357 7.42 45.7144 6.8127 45.7144 6.02678C45.7144 5.34803 43.8925 1.34698 43.2137 0.52533C42.535 -0.296314 41.106 -0.117695 38.784 1.09691Z" fill="#6366F1"/>
</svg>
