<svg width="70" height="70" viewBox="0 0 70 70" fill="none" xmlns="http://www.w3.org/2000/svg">
<circle cx="35" cy="35" r="35" fill="#6366F1" fill-opacity="0.15"/>
<path d="M42.7838 23.1904C42.5542 23.2738 41.9908 23.7329 41.5317 24.2128C40.9057 24.8597 40.7805 25.131 40.9683 25.3188C41.1353 25.4858 41.4274 25.3397 42.1369 24.6928C43.2011 23.712 43.9106 23.5868 44.5575 24.2337C45.4339 25.1101 45.1835 25.4858 41.6987 28.9288L38.4017 32.1424L36.5236 32.1633H34.6456L37.6296 29.1793C40.0502 26.7587 40.5719 26.1326 40.3423 25.9448C40.1128 25.757 39.7789 25.9866 38.7147 27.0508L37.3792 28.4072H35.4802C33.0596 28.4072 32.2041 28.6576 31.0773 29.7009C30.3469 30.3687 30.2008 30.6191 30.3886 30.8278C30.5764 31.0782 30.7642 30.9947 31.3694 30.473C32.4336 29.534 33.2892 29.2419 35.0003 29.2419H36.5236L32.538 33.2066C29.0949 36.6497 28.4897 37.1714 27.9263 37.1714C27.0916 37.1714 26.6117 36.6915 26.6117 35.8776C26.6117 35.356 26.9247 34.9177 28.281 33.5196C29.6374 32.1424 29.9087 31.7668 29.6791 31.579C29.4496 31.3912 29.0114 31.7251 27.5924 33.1858C25.9022 34.9177 25.777 35.0847 25.777 35.8985C25.777 36.5871 25.9022 36.921 26.3613 37.3592C26.6743 37.6722 27.0707 37.9852 27.2377 38.0478C27.4672 38.1313 26.7369 38.9869 24.7753 40.9693L22 43.7655L22.0626 45.8522L22.1252 47.918L23.1894 47.8972C24.8797 47.8554 26.4447 47.0208 28.3436 45.1427C29.9296 43.5568 29.9504 43.5359 29.9504 42.4508C29.9504 41.324 30.2426 40.8232 30.4721 41.5327C30.6599 42.1378 31.7867 43.0142 32.371 43.0142C32.7675 43.0142 32.8718 43.1186 32.8718 43.5568C32.8718 44.2871 34.103 45.5183 34.8334 45.5183C35.2716 45.5183 35.3759 45.6226 35.3759 46.0609C35.3759 46.3947 35.6472 46.8747 36.1063 47.3338C36.774 48.0015 36.941 48.0641 37.6922 47.9598C38.9651 47.7928 40.864 45.8939 40.071 45.5809C39.8415 45.4974 39.4242 45.7479 38.8399 46.3321C37.88 47.2712 37.254 47.3964 36.6279 46.7703C35.8141 45.9565 36.0645 45.414 38.2347 43.202C39.7998 41.5953 40.1962 41.0736 40.0084 40.8858C39.8206 40.698 39.299 41.0945 37.6922 42.6595C35.4802 44.8297 34.9377 45.0801 34.1239 44.2663C33.31 43.4525 33.5605 42.9099 35.7306 40.698C37.2957 39.0912 37.6922 38.5695 37.5044 38.3817C37.3166 38.1939 36.7949 38.5904 35.1881 40.1554C32.9762 42.3256 32.4336 42.576 31.6198 41.7622C30.8894 41.0319 31.0981 40.5102 32.8301 38.7782L34.4369 37.1714H37.1079H39.758L40.5719 38.0478C41.6361 39.2164 43.3055 40.1972 44.8705 40.6145C46.5399 41.0319 47.0616 41.0319 47.0616 40.531C47.0616 40.2389 46.8529 40.1137 46.1434 40.0302C44.328 39.7798 42.909 39.0703 41.4274 37.6722L40.0293 36.3367H37.1705C34.416 36.3367 34.2908 36.3159 33.8109 35.815C33.1222 35.1473 33.1222 34.1874 33.8109 33.5196C34.3117 32.998 34.3325 32.998 38.6103 32.998C42.742 32.998 42.8881 32.9771 42.8881 32.5806C42.8881 32.205 42.742 32.1633 41.2813 32.1633H39.6746L41.1144 30.7026L42.5542 29.2419H44.8079C46.9155 29.2419 47.0616 29.221 47.0616 28.8245C47.0616 28.4489 46.9155 28.4072 45.2461 28.4072H43.4307L44.5575 27.2595C45.6009 26.1952 45.7052 26.0283 45.7052 25.1519C45.7052 24.3381 45.6009 24.1085 45.0166 23.5868C44.328 22.9817 43.5976 22.8356 42.7838 23.1904ZM33.1431 36.295L33.5813 36.7749L31.3485 39.0077L29.1157 41.2405V42.3256C29.1157 43.369 29.0949 43.4107 27.7594 44.6628C26.2987 46.0191 24.9005 46.8329 23.6485 47.0625L22.8556 47.2086V45.5809V43.9533L27.5924 39.2164L32.3502 34.4587L32.5171 35.1264C32.6214 35.502 32.8927 36.0237 33.1431 36.295Z" fill="#6366F1"/>
<path d="M31.5154 36.3575C31.432 36.4618 31.5363 36.754 31.745 36.9835C32.0163 37.2965 32.1623 37.3174 32.3919 37.1505C32.6214 36.9418 32.6214 36.8375 32.3293 36.5244C31.9328 36.0654 31.7033 36.0236 31.5154 36.3575Z" fill="#6366F1"/>
<path d="M30.2634 37.6095C30.18 37.7139 30.2843 38.006 30.493 38.2355C30.7642 38.5486 30.9103 38.5694 31.1399 38.4025C31.3694 38.1938 31.3694 38.0895 31.0773 37.7765C30.6808 37.3174 30.4512 37.2756 30.2634 37.6095Z" fill="#6366F1"/>
<path d="M26.5699 43.1394C25.8395 43.7654 24.9005 44.4749 24.4623 44.7044C23.7528 45.08 23.5024 45.4765 23.8154 45.7895C24.2536 46.2069 28.5732 42.8681 28.3645 42.2838C28.1767 41.8039 27.9889 41.8873 26.5699 43.1394Z" fill="#6366F1"/>
<path d="M41.9491 25.9239C41.8656 26.0283 41.97 26.3204 42.1786 26.5499C42.4499 26.8629 42.596 26.8838 42.8255 26.7169C43.0551 26.5082 43.0551 26.4039 42.7629 26.0909C42.3664 25.6318 42.1369 25.59 41.9491 25.9239Z" fill="#6366F1"/>
<path d="M40.6971 27.176C40.6136 27.2803 40.7179 27.5725 40.9266 27.802C41.1979 28.115 41.3439 28.1359 41.5735 27.9689C41.803 27.7603 41.803 27.6559 41.5109 27.3429C41.1144 26.8839 40.8849 26.8421 40.6971 27.176Z" fill="#6366F1"/>
<path d="M39.445 28.428C39.3615 28.5323 39.4659 28.8245 39.6746 29.054C39.9458 29.367 40.0919 29.3879 40.3214 29.221C40.551 29.0123 40.551 28.908 40.2588 28.5949C39.8624 28.1359 39.6328 28.0941 39.445 28.428Z" fill="#6366F1"/>
<path d="M38.193 29.68C38.1095 29.7844 38.2139 30.0765 38.4225 30.306C38.6938 30.619 38.8399 30.6399 39.0694 30.473C39.299 30.2643 39.299 30.16 39.0068 29.847C38.6103 29.3879 38.3808 29.3461 38.193 29.68Z" fill="#6366F1"/>
<path d="M36.941 30.9321C36.8575 31.0364 36.9618 31.3286 37.1705 31.5581C37.4418 31.8711 37.5878 31.892 37.8174 31.7251C38.0469 31.5164 38.0469 31.412 37.7548 31.099C37.3583 30.64 37.1288 30.5982 36.941 30.9321Z" fill="#6366F1"/>
<path d="M46.3938 41.9082C45.893 42.5343 44.4949 43.0142 43.2011 43.0142C41.9908 43.0142 41.8865 43.0559 41.1144 43.8489C40.384 44.6001 40.3214 44.7253 40.6136 45.0175C40.9057 45.3096 41.01 45.2679 41.5735 44.621C42.1369 43.9741 42.3247 43.9115 43.6393 43.8072C44.4323 43.7446 45.3713 43.5567 45.7052 43.3689C46.4147 42.9933 47.2702 42.2421 47.2702 41.9917C47.2702 41.637 46.6651 41.5744 46.3938 41.9082Z" fill="#6366F1"/>
</svg>
