<svg width="70" height="70" viewBox="0 0 70 70" fill="none" xmlns="http://www.w3.org/2000/svg">
<circle cx="35" cy="35" r="35" fill="#2A2960" fill-opacity="0.25"/>
<path d="M22.6139 20.2107C22.4734 20.4447 22.5671 21.9663 22.8714 24.3772C22.965 25.1497 22.9182 25.3838 22.6607 25.3838C21.8414 25.3838 21.818 25.8988 22.4032 32.2891C22.9416 38.1644 22.965 39.2412 22.5905 41.6053C22.4969 42.2139 22.5671 42.6587 22.8246 43.0566C23.1757 43.5716 23.1757 43.7823 22.8948 44.8824C22.4969 46.4507 22.7075 47.4807 23.6438 48.417C24.3695 49.1192 24.4397 49.1426 26.8741 49.2129C28.5361 49.2831 29.5426 49.4235 29.8469 49.6342C30.5725 50.1258 41.6444 50.1258 41.8316 49.6108C41.9487 49.3299 42.4871 49.2597 44.7342 49.2597C47.1218 49.2597 47.5665 49.1895 48.0815 48.7915C48.9476 48.1127 49.088 47.153 48.5029 45.8656C48.1283 45.0229 47.824 44.6952 47.0282 44.3441C46.4664 44.0866 45.6471 43.8759 45.2024 43.8759C44.7576 43.8759 43.8681 43.7355 43.2127 43.5716C42.2998 43.3375 42.0189 43.1503 41.9721 42.7523C41.8785 42.1437 41.2699 41.7224 37.4076 39.6859C35.6286 38.7262 34.5752 38.024 34.4582 37.6963C34.3412 37.4154 34.505 35.0512 34.8093 32.172C35.4881 25.8519 35.4881 25.5945 34.9498 25.454C34.5518 25.3604 34.5518 25.1965 34.8327 22.8792C35.137 20.3277 35.1136 20 34.5518 20C34.0603 20 33.9432 20.3043 33.6623 22.8792L33.3815 25.2667L28.7701 25.337L24.1588 25.3838L24.0184 24.0495C23.6672 20.6554 23.5502 20.117 23.1523 20.0468C22.9416 20 22.7075 20.0936 22.6139 20.2107ZM34.1539 27.1862L34.0837 27.8416L28.6531 27.9118L23.1991 27.9586V27.2564V26.5542H28.7233H34.2241L34.1539 27.1862ZM28.6999 29.8781C28.6297 30.2994 28.3722 32.3359 28.1147 34.3958C27.7402 37.3685 27.7168 38.1878 27.9509 38.4219C28.5829 39.0773 28.8404 38.3283 29.3085 34.2553C29.5894 31.9614 29.9405 29.9483 30.1278 29.644C30.4321 29.1758 30.6662 29.129 32.2345 29.129H33.9901L33.8496 30.1121C33.7794 30.6739 33.5687 32.5466 33.3815 34.2787C32.9601 38.4687 33.0303 38.6326 36.0265 40.2477L38.18 41.4181L38.1332 43.1737C38.063 44.7654 38.0162 44.9292 37.548 44.9995C37.2905 45.0463 35.5818 44.3441 33.7794 43.4312C31.0173 42.0501 30.4555 41.8394 30.2214 42.1203C30.081 42.3076 30.0107 42.5651 30.1044 42.7055C30.4087 43.1737 36.7522 46.2167 37.4778 46.2167C38.18 46.2167 38.18 46.2401 38.18 47.5041V48.7915H34.3178C29.9639 48.7915 29.9873 48.7915 29.9873 46.9189C29.9873 45.889 29.3787 44.4845 28.6531 43.8291C27.9274 43.1737 26.5698 42.7055 25.3526 42.7055C23.7609 42.7055 23.5736 42.4012 23.9247 40.669C24.1588 39.5689 24.1354 38.5155 23.8077 34.981C23.597 32.5934 23.4332 30.2994 23.4332 29.8781V29.129H26.1251H28.8404L28.6999 29.8781ZM40.1697 42.5182C40.7549 42.7757 40.7549 42.7991 40.7549 45.7953V48.7915H40.0527H39.3504V45.5144C39.3504 43.712 39.3972 42.2374 39.4675 42.2374C39.5143 42.2374 39.842 42.3544 40.1697 42.5182ZM27.0614 44.2036C28.1147 44.6484 28.8169 45.8187 28.8169 47.0828V48.0893H26.9677C25.4462 48.0893 25.0249 47.9957 24.4865 47.5743C23.8779 47.1062 23.8545 46.9891 23.9715 45.7251C24.0418 44.9761 24.1588 44.2738 24.2524 44.1334C24.4631 43.7589 26.1251 43.8291 27.0614 44.2036ZM44.9917 45.0463C46.7005 45.2804 47.1686 45.5613 47.5431 46.4742C48.1049 47.785 47.7538 47.9723 44.6406 48.0425L41.9253 48.1127V46.3103V44.5313L42.8148 44.6952C43.2829 44.7888 44.2661 44.9527 44.9917 45.0463Z" fill="#2A2960"/>
<path d="M28.6531 40.0604C28.1615 40.2477 28.302 41.067 28.7935 41.067C29.051 41.067 29.3319 40.9499 29.4256 40.8095C29.6128 40.4818 29.0276 39.92 28.6531 40.0604Z" fill="#2A2960"/>
</svg>
