<svg width="70" height="70" viewBox="0 0 70 70" fill="none" xmlns="http://www.w3.org/2000/svg">
<circle cx="35" cy="35" r="35" fill="#FFB203" fill-opacity="0.15"/>
<path d="M21.762 20.7178C21.5738 21.1413 21.1267 21.6354 20.7502 21.8471C19.762 22.3648 19.762 22.6942 20.6796 23.1412C21.1502 23.353 21.6208 23.8236 21.7855 24.2236C22.1384 25.0471 22.6561 25.1177 22.9384 24.3648C23.1737 23.7765 23.809 23.1648 24.4443 22.953C25.0561 22.7177 24.9149 22.1766 24.1619 21.8471C23.762 21.6824 23.2914 21.2354 23.0796 20.7648C22.609 19.7531 22.209 19.7531 21.762 20.7178ZM22.9149 22.3883C23.009 22.8824 22.3267 23.1883 21.9737 22.8354C21.7855 22.6471 21.7855 22.4589 22.0208 22.2001C22.3973 21.753 22.8208 21.8471 22.9149 22.3883Z" fill="#FFB203" stroke="#FFB203" stroke-width="0.5"/>
<path d="M27.456 23.5412C25.7149 24.2 24.1149 25.8235 23.4561 27.5647C22.5149 30.1058 22.9149 33.447 24.6325 37.141C25.2914 38.5763 25.856 40.4821 26.609 43.8468C27.2207 46.5291 27.856 48.8114 28.1148 49.1408C28.9619 50.3173 30.9854 50.2702 31.7618 49.0938C31.9501 48.7879 32.4912 46.3409 32.9383 43.6115C33.8089 38.4351 33.95 38.0822 35.103 38.0822C35.3853 38.0822 35.7383 38.2234 35.8794 38.4116C36.0441 38.5998 36.5382 40.9527 36.9853 43.6586C37.4323 46.3409 37.95 48.7644 38.1382 49.0467C38.9382 50.2702 40.9382 50.3173 41.8087 49.1408C42.0676 48.8114 42.7029 46.5526 43.3146 43.8468C44.0675 40.4821 44.6322 38.5763 45.291 37.141C47.6675 32.0117 47.5028 27.7765 44.844 25.1412C42.8676 23.1412 39.997 22.5295 37.1971 23.4942C36.4441 23.753 35.4324 23.9647 34.9618 23.9647C34.4912 23.9647 33.4795 23.753 32.7265 23.4942C30.9854 22.8824 29.0795 22.9059 27.456 23.5412ZM32.3736 24.4353C34.3265 25.0236 35.5735 25.0236 37.6441 24.4118C41.0088 23.4001 43.8087 24.5294 45.3616 27.4941C46.4204 29.5647 45.8557 34.2705 44.1852 37.141C43.7617 37.8704 43.197 39.8469 42.3734 43.3762C41.2911 48.1291 41.1499 48.5526 40.5852 48.882C40.0205 49.1879 39.9029 49.1879 39.3853 48.8585C38.8676 48.5056 38.75 48.082 38.0441 43.7997C37.1971 38.7881 36.9147 37.7998 36.1853 37.3998C35.3383 36.9528 34.0442 37.094 33.4324 37.7057C32.7501 38.3881 32.7971 38.1998 31.903 43.7056C31.503 46.0821 31.0795 48.2232 30.9619 48.4585C30.6324 49.0702 29.856 49.235 29.2207 48.835C28.7737 48.5291 28.5384 47.7291 27.5737 43.4703C26.7737 39.941 26.2325 38.0822 25.7855 37.2587C24.3737 34.7646 23.6208 30.8352 24.1149 28.7411C24.7972 26.0118 27.1972 24.0589 30.0207 23.9883C30.4677 23.9883 31.5266 24.1765 32.3736 24.4353Z" fill="#FFB203" stroke="#FFB203" stroke-width="0.5"/>
<path d="M27.6678 26.247C26.609 26.647 25.5502 28.2 25.5502 29.3764C25.5502 29.9176 25.6678 30.0823 25.9972 30.0823C26.3266 30.0823 26.4678 29.847 26.5854 29.1646C26.7031 28.3176 27.7854 27.0235 28.3737 27.0235C28.4678 27.0235 28.5148 26.8117 28.4442 26.5529C28.3031 26.0588 28.256 26.0353 27.6678 26.247Z" fill="#FFB203" stroke="#FFB203" stroke-width="0.5"/>
<path d="M29.5501 26.553C29.5501 26.8589 29.7148 27.0236 30.0207 27.0236C30.3266 27.0236 30.4913 26.8589 30.4913 26.553C30.4913 26.2471 30.3266 26.0824 30.0207 26.0824C29.7148 26.0824 29.5501 26.2471 29.5501 26.553Z" fill="#FFB203" stroke="#FFB203" stroke-width="0.5"/>
<path d="M46.9616 41.7292C46.8439 42.0586 46.3498 42.5527 45.9028 42.8116C44.891 43.4233 44.8675 43.8233 45.8087 44.2233C46.2792 44.4115 46.6792 44.8115 46.891 45.3056C47.2675 46.2233 47.5969 46.2233 48.138 45.2586C48.3498 44.8821 48.8204 44.4115 49.2204 44.1998C50.0674 43.7292 50.0909 43.3292 49.3145 42.9527C48.9851 42.788 48.5145 42.3175 48.2557 41.9175C47.691 40.9998 47.2675 40.9528 46.9616 41.7292ZM47.8792 43.8704C47.5498 44.1998 47.4792 44.1998 47.1969 43.8704C46.9616 43.5645 46.9616 43.4233 47.1969 43.1174C47.4792 42.788 47.5498 42.788 47.8792 43.1174C48.2086 43.4704 48.2086 43.5174 47.8792 43.8704Z" fill="#FFB203" stroke="#FFB203" stroke-width="0.5"/>
</svg>
