<svg width="70" height="70" viewBox="0 0 70 70" fill="none" xmlns="http://www.w3.org/2000/svg">
<circle cx="35" cy="35" r="35" fill="#4CD080" fill-opacity="0.15"/>
<path d="M42.2422 22.6953L39.5 25.3906L37.4375 25.3203C35.8203 25.2969 35.1875 25.3672 34.6016 25.6953C31.3437 27.4531 31.9062 32.3984 35.4922 33.3594C36.2656 33.5703 36.4297 33.7344 36.6406 34.5078C37.6016 38.0938 42.5469 38.6563 44.3047 35.3984C44.6094 34.8125 44.7031 34.1563 44.6562 32.5859L44.6094 30.5L47.3047 27.7578C48.8281 26.1875 50 24.8047 50 24.5469C50 23.9375 46.0391 20 45.4297 20C45.1484 20 43.8828 21.0781 42.2422 22.6953ZM46.25 27.1719C44.8203 28.6484 43.625 30.0547 43.5312 30.4297C43.4375 30.7813 43.4375 31.6953 43.5312 32.4688C43.6953 34.2031 43.2969 35.2813 42.2187 35.9375C41.2344 36.5234 40.0156 36.5469 39.0547 35.9375C38.1406 35.3984 37.8359 34.8359 37.6953 33.5703C37.6484 33.0313 37.5547 32.5625 37.5078 32.4922C37.4375 32.4453 36.9687 32.3516 36.4297 32.3047C35.1641 32.1641 34.6016 31.8594 34.0625 30.9453C33.4531 29.9844 33.4766 28.7656 34.0625 27.7813C34.7422 26.6797 35.75 26.3281 37.7656 26.4922C39.8281 26.6563 40.1562 26.4688 43.2031 23.4219L45.4297 21.1719L47.1172 22.8594L48.8047 24.5469L46.25 27.1719Z" fill="#4CD080"/>
<path d="M30.7812 25.9766C30.7812 26.6328 30.875 26.7969 31.2266 26.7969C31.8359 26.7969 32.0234 26.4453 31.8594 25.7188C31.7656 25.3672 31.5312 25.1563 31.25 25.1563C30.875 25.1563 30.7812 25.3203 30.7812 25.9766Z" fill="#4CD080"/>
<path d="M27.5703 27.875C27.5 28.086 27.6406 28.461 27.9453 28.7422C28.3906 29.1875 28.4844 29.211 28.7891 28.8828C29.0938 28.5781 29.0938 28.4844 28.7656 28.0156C28.3438 27.4063 27.7813 27.336 27.5703 27.875Z" fill="#4CD080"/>
<path d="M25.2031 31.2969C25.25 31.7188 25.4375 31.8359 25.9766 31.8359C26.5156 31.8359 26.7031 31.7188 26.75 31.2969C26.8203 30.8516 26.7266 30.7813 25.9766 30.7813C25.2266 30.7813 25.1328 30.8516 25.2031 31.2969Z" fill="#4CD080"/>
<path d="M27.6172 32.75C26.6797 33.1484 25.6953 34.3203 25.4141 35.4219C25.2734 35.8906 25.2266 36.9922 25.3203 37.8594L25.4609 39.4297L22.7187 42.2188C21.1719 43.7891 20 45.1953 20 45.4531C20 46.0625 23.9609 50 24.5937 50C25.0859 50 26.0937 49.1094 26.0937 48.6641C26.0937 48.2422 25.4609 48.125 24.9922 48.4766C24.6172 48.7812 24.4062 48.6406 22.8828 47.1172L21.1953 45.4531L23.75 42.8281C25.1797 41.3516 26.375 39.9453 26.4687 39.5703C26.5625 39.2188 26.5625 38.3047 26.4687 37.5312C26.3047 35.7969 26.7031 34.7188 27.7812 34.0625C28.7656 33.4766 29.9844 33.4531 30.9453 34.0625C31.8594 34.6016 32.1641 35.1641 32.3047 36.4297C32.3516 36.9688 32.4453 37.4375 32.4922 37.5078C32.5625 37.5547 33.0312 37.6484 33.5703 37.6953C34.8359 37.8359 35.3984 38.1406 35.9375 39.0547C36.5469 40.0156 36.5234 41.2344 35.9375 42.2188C35.2578 43.3203 34.25 43.6719 32.2344 43.5078C30.6875 43.3906 30.4766 43.4141 29.6094 44C29.0937 44.3281 28.6719 44.7734 28.6719 44.9609C28.6719 45.5703 29.3047 45.6172 30.0547 45.1016C30.6172 44.6797 31.0391 44.6094 32.6797 44.6562C34.1797 44.7031 34.8359 44.6094 35.3984 44.3047C38.6562 42.5469 38.0937 37.6016 34.5078 36.6406C33.7344 36.4297 33.5703 36.2656 33.3594 35.4922C32.7031 33.0781 29.9141 31.7422 27.6172 32.75Z" fill="#4CD080"/>
<path d="M27.0547 46.4609C26.6563 46.7188 26.8906 47.4219 27.3594 47.4219C27.875 47.4219 28.0625 46.9531 27.7109 46.5781C27.5 46.3906 27.2656 46.3438 27.0547 46.4609Z" fill="#4CD080"/>
</svg>
