<svg width="70" height="70" viewBox="0 0 70 70" fill="none" xmlns="http://www.w3.org/2000/svg">
<circle cx="35" cy="35" r="35" fill="#2AA7FF" fill-opacity="0.15"/>
<path d="M33.464 20.17L33.2706 20.3399L33.2413 23.0888L33.212 25.8317L33.0185 26.242C32.8603 26.5761 32.6845 26.7871 32.0339 27.4435L31.2485 28.2406L30.8265 28.0355C30.4514 27.8479 30.3459 27.8245 29.8653 27.8069C29.3905 27.7893 29.2675 27.8069 28.8279 27.9593C28.1363 28.1938 27.4212 28.6861 26.6769 29.4363C23.5647 32.5602 20.4935 39.5876 20.048 44.6223C19.8546 46.8202 20.2473 48.432 21.1909 49.2935C21.7067 49.7683 22.5507 50.0555 23.2071 49.991C24.2621 49.8796 26.2901 48.8657 28.8455 47.1718C29.4667 46.7616 29.9298 46.492 30.0177 46.492C30.0997 46.492 30.3283 46.4509 30.5335 46.404C31.5884 46.152 32.5731 45.3608 33.0654 44.3703C33.4874 43.5028 33.4874 43.579 33.4581 38.4916C33.4347 33.668 33.4405 33.75 33.1182 32.1089L32.9951 31.4701L33.9973 30.4678L34.9996 29.4656L36.0018 30.4678L37.0041 31.4701L36.881 32.0796C36.5645 33.709 36.5234 34.4475 36.5234 39.0191C36.5234 43.5614 36.5234 43.5263 36.9396 44.382C37.4085 45.3315 38.4459 46.1637 39.4598 46.404C39.665 46.4509 39.8994 46.492 39.9815 46.492C40.0694 46.492 40.5324 46.7616 41.1537 47.1718C43.756 48.9008 45.7605 49.8972 46.8272 49.991C47.5657 50.0613 48.4272 49.7097 48.9606 49.1412C50.2676 47.7286 50.3438 44.8274 49.1775 40.5899C48.9606 39.8045 48.8317 39.6345 48.4507 39.6345C48.2631 39.6345 48.1694 39.6697 48.0463 39.7869C47.8411 39.9979 47.847 40.1913 48.099 41.0939C48.6089 42.9402 48.7965 44.1768 48.7965 45.6128C48.7965 46.826 48.7262 47.2539 48.4155 47.881C48.1342 48.4671 47.5774 48.8364 46.9796 48.8364C46.6455 48.8364 45.866 48.5492 45.0044 48.1096C43.9611 47.5821 43.2578 47.1543 41.7515 46.1579C40.5793 45.3725 40.5559 45.3666 40.1397 45.3139C39.9053 45.2904 39.6005 45.226 39.454 45.1732C38.6158 44.8743 37.9535 44.1065 37.7601 43.2215C37.7191 43.0046 37.6957 41.6859 37.6957 38.9722V35.0336L38.8679 36.2058L40.0401 37.378V39.9745V42.5768L40.2394 42.776C40.509 43.0457 40.7434 43.0457 41.013 42.776L41.2123 42.5768V40.5664V38.5561L42.5486 39.8865C43.8615 41.1936 43.8908 41.217 44.1252 41.217C44.4593 41.217 44.6645 41.0353 44.7113 40.7012L44.7465 40.4492L43.375 39.0719L42.0094 37.7004H43.1699H44.3304L44.5296 37.5011C44.7406 37.2901 44.7758 37.1084 44.6586 36.8505C44.5179 36.5457 44.4124 36.5282 42.5486 36.5282H40.8313L39.3368 35.0336C37.6195 33.3163 37.7719 33.6269 38.0239 32.3668C38.3052 30.9602 38.7389 29.911 39.2606 29.3953C39.8349 28.815 40.4972 28.8092 41.3998 29.3542C41.8394 29.618 42.7948 30.5323 43.3047 31.1653C44.0901 32.1441 45.0923 33.7383 45.7898 35.1274C46.0242 35.608 46.118 35.7252 46.2821 35.8073C46.6631 35.9889 47.1026 35.7018 47.0909 35.2798C47.0792 34.7816 45.2974 31.7749 44.2249 30.4327C43.2988 29.278 42.2087 28.3637 41.3002 27.9945C40.9368 27.8421 40.8196 27.8245 40.2394 27.8245C39.6181 27.8245 39.5771 27.8304 39.1726 28.0355L38.7506 28.2406L38.0004 27.4787C36.7227 26.1834 36.7579 26.3065 36.7579 22.9774C36.7579 21.1605 36.7403 20.4337 36.6876 20.3224C36.5528 20.0293 36.4121 20 34.9761 20H33.6515L33.464 20.17ZM35.5857 23.3525C35.5857 25.8435 35.615 26.0603 36.0018 26.8574C36.2187 27.297 36.3535 27.4611 37.1096 28.2348L37.9711 29.1139L37.7191 29.5828C37.5784 29.8407 37.4554 30.0751 37.4436 30.1103C37.4261 30.1396 37.0392 29.7997 36.5762 29.3425C36.1132 28.8854 35.6384 28.4692 35.5271 28.4106C35.2868 28.2875 34.7475 28.2699 34.5307 28.3754C34.4486 28.4165 33.9856 28.8502 33.4933 29.3367C33.001 29.8231 32.5907 30.21 32.5848 30.1982C32.5731 30.1806 32.4442 29.9286 32.2976 29.6414L32.028 29.1139L32.9189 28.2055C33.6691 27.4377 33.8449 27.2267 34.0266 26.8574C34.3842 26.1248 34.4135 25.8728 34.4135 23.3818V21.1722H34.9996H35.5857V23.3525ZM30.4514 29.1667C31.1489 29.577 31.7291 30.9016 32.069 32.8416L32.1804 33.5097L30.6741 35.016L29.1678 36.5282H27.4564C26.3487 36.5282 25.6981 36.5516 25.6043 36.5926C25.5281 36.6278 25.4226 36.7274 25.3699 36.8212C25.2175 37.0791 25.2468 37.2784 25.4695 37.5011L25.6688 37.7004H26.8351L27.9956 37.7062L26.7238 38.9488C26.0263 39.6345 25.4109 40.2617 25.3523 40.3496C25.0768 40.8067 25.6336 41.3928 26.1084 41.1525C26.1787 41.1174 26.8117 40.5195 27.515 39.8221L28.7869 38.5502V40.5664V42.5768L28.9861 42.776C29.2089 42.9988 29.4081 43.0281 29.666 42.8757C29.7598 42.8229 29.8594 42.7174 29.8946 42.6412C29.9356 42.5475 29.9591 41.6566 29.9591 39.9393V37.378L31.1313 36.2058L32.3035 35.0336V38.9722C32.3035 41.6683 32.28 43.0105 32.239 43.2215C32.0984 43.8838 31.6412 44.5402 31.0785 44.9036C30.7093 45.1439 30.3635 45.2611 29.8536 45.3197C29.4316 45.3666 29.4081 45.3784 28.4762 46.0113C26.5421 47.3242 24.5259 48.4378 23.5822 48.7192C23.0547 48.8774 22.6972 48.854 22.2752 48.6195C21.5895 48.2503 21.2495 47.459 21.1851 46.0817C20.9389 40.7305 25.5809 30.6437 28.992 29.1374C29.5605 28.8854 29.9884 28.8971 30.4514 29.1667Z" fill="#2AA7FF"/>
<path d="M47.3137 37.1965C46.792 37.4837 47.0265 38.2866 47.6302 38.2866C47.8412 38.2866 48.187 37.9408 48.187 37.7357C48.187 37.2668 47.7181 36.9737 47.3137 37.1965Z" fill="#2AA7FF"/>
</svg>
