<svg width="57" height="64" viewBox="0 0 57 64" fill="none" xmlns="http://www.w3.org/2000/svg">
<path fill-rule="evenodd" clip-rule="evenodd" d="M52.1779 23.551C52.3934 21.4566 52.621 19.3803 52.7776 17.2781C52.9091 15.4976 51.5675 13.9461 49.7869 13.8146C48.0064 13.6831 46.4564 15.0219 46.3249 16.8025C46.1733 18.8441 45.9509 20.8598 45.7433 22.8952C45.5612 24.6727 46.8558 26.2605 48.6333 26.4425C50.408 26.623 51.9958 25.3285 52.1779 23.551Z" fill="#201F50"/>
<path fill-rule="evenodd" clip-rule="evenodd" d="M36.0126 28.9575C32.2031 23.5606 28.124 18.3591 24.2023 13.0468C23.1422 11.6093 21.114 11.3051 19.6764 12.3652C18.2417 13.4269 17.9362 15.4505 18.9963 16.8881C22.8897 22.1653 26.9438 27.3261 30.7249 32.6879C31.7548 34.1454 33.7759 34.4943 35.2334 33.4644C36.6937 32.4361 37.0425 30.4149 36.0126 28.9575Z" fill="#201F50"/>
<path fill-rule="evenodd" clip-rule="evenodd" d="M21.6981 47.8377C16.5024 45.8577 11.2403 44.0185 6.06855 41.9777C4.4091 41.3259 2.5296 42.1421 1.87339 43.8027C1.21999 45.4649 2.03622 47.3444 3.69685 48.0006C8.89308 50.0444 14.1748 51.8948 19.3945 53.885C21.0636 54.5199 22.9328 53.6829 23.5677 52.0137C24.2055 50.3462 23.3672 48.4726 21.6981 47.8377Z" fill="#201F50"/>
</svg>
