<svg width="122" height="31" viewBox="0 0 122 31" fill="none" xmlns="http://www.w3.org/2000/svg">
<path fill-rule="evenodd" clip-rule="evenodd" d="M53.9056 3.92797C50.5764 4.96695 47.2933 6.17906 43.9736 7.41208C34.7977 10.8202 13.7219 19.033 1.80127 23.6782C-0.438964 24.5512 -2.35586 25.2981 -3.80967 25.8635C-4.63495 26.1845 -5.56594 25.7802 -5.88909 24.9606C-6.21225 24.1409 -5.8052 23.2162 -4.97993 22.8953C-3.53176 22.3321 -1.62009 21.5871 0.615564 20.7159C12.5298 16.0732 33.6455 7.84486 42.8494 4.42632C46.2658 3.15737 49.7333 1.87644 53.2709 0.785281C53.465 0.725406 53.6622 0.654979 53.9012 0.569629C53.9449 0.554014 53.99 0.5379 54.0368 0.521259C54.3203 0.420354 54.6556 0.303371 55.0049 0.208533C55.6901 0.0225288 56.6184 -0.134121 57.5964 0.17701C58.4645 0.453163 58.6657 1.22526 58.7007 1.49442C58.7359 1.7656 58.6908 1.97865 58.6779 2.03846C58.6449 2.1922 58.5951 2.31146 58.5808 2.34548L58.5804 2.34664C58.5408 2.44126 58.4948 2.53018 58.465 2.58634C58.3977 2.71355 58.3047 2.87598 58.1996 3.05478C57.9852 3.41941 57.6753 3.9284 57.3044 4.52854C56.5605 5.7322 55.5493 7.33833 54.5149 8.96949C52.4551 12.2175 50.2663 15.6226 49.9082 16.1482C49.6031 16.596 49.1394 17.1976 48.6416 17.8433C48.5317 17.986 48.42 18.1308 48.3081 18.2766C47.6666 19.112 46.9655 20.041 46.3301 20.9823C45.6894 21.9315 45.1508 22.8421 44.8112 23.6374C44.6182 24.0897 44.5214 24.4321 44.4791 24.6794C44.6606 24.6934 44.9025 24.6971 45.2131 24.6802C46.3691 24.6171 47.9547 24.3029 49.649 23.8709C52.3292 23.1876 54.9244 22.3115 56.1871 21.8852C56.5314 21.769 56.7766 21.6862 56.8974 21.6499C68.1332 18.2743 79.3958 14.9831 91.1279 13.0696C91.5896 12.9943 92.2299 12.8646 92.997 12.7092C95.4618 12.2099 99.2367 11.4453 102.611 11.3661C104.836 11.3138 107.174 11.5389 109.018 12.4904C109.967 12.98 110.811 13.6755 111.415 14.637C112.02 15.6 112.327 16.7376 112.345 18.0208C112.35 18.4142 112.276 18.8842 112.199 19.2937C112.117 19.7368 112.004 20.2555 111.883 20.7973C111.857 20.9117 111.832 21.0276 111.805 21.1447C111.578 22.1597 111.33 23.2715 111.147 24.3521C110.939 25.5833 110.844 26.6257 110.917 27.3435C110.937 27.5326 110.962 27.6599 110.984 27.7425C112.058 27.9161 113.452 27.7559 115.076 27.4103C115.855 27.2447 116.636 27.049 117.419 26.8526L117.627 26.8004C118.464 26.5908 119.315 26.3805 120.099 26.2345C120.97 26.0723 121.809 26.6422 121.972 27.5074C122.136 28.3726 121.562 29.2054 120.691 29.3677C120.019 29.4927 119.261 29.6786 118.412 29.8914C118.341 29.9091 118.27 29.927 118.198 29.9451C117.424 30.1392 116.587 30.349 115.748 30.5274C113.959 30.9079 111.902 31.208 110.081 30.8162C108.274 30.4272 107.83 28.6993 107.724 27.6657C107.605 26.4996 107.765 25.104 107.982 23.8241C108.179 22.656 108.447 21.4607 108.672 20.4555C108.698 20.3371 108.724 20.2213 108.749 20.1086C108.871 19.5627 108.973 19.0957 109.043 18.7154C109.078 18.5264 109.103 18.3729 109.118 18.252C109.126 18.1923 109.131 18.1461 109.133 18.1117C109.136 18.0763 109.135 18.0623 109.136 18.0651C109.124 17.2699 108.941 16.7204 108.692 16.3248C108.442 15.9277 108.07 15.5933 107.538 15.3191C106.422 14.7429 104.743 14.5046 102.687 14.5529C99.6369 14.6245 96.3864 15.2817 93.9281 15.7788C93.0527 15.9558 92.2777 16.1125 91.648 16.2152C80.149 18.0906 69.0718 21.3227 57.8267 24.7011C57.827 24.701 57.8254 24.7015 57.8217 24.7026L57.8063 24.7075L57.7539 24.7246C57.7099 24.739 57.6537 24.7578 57.5841 24.7813C57.5104 24.8061 57.4281 24.8339 57.3348 24.8655C57.2476 24.895 57.1509 24.9277 57.0425 24.9643C56.6022 25.1128 56.0156 25.3092 55.3326 25.5296C53.9698 25.9693 52.2101 26.509 50.447 26.9585C48.7067 27.4022 46.8716 27.7822 45.3892 27.8631C44.6631 27.9027 43.8819 27.8804 43.2003 27.6762C42.5039 27.4675 41.5946 26.9519 41.3368 25.8334C41.0638 24.6488 41.4251 23.4031 41.8563 22.3931C42.3109 21.3282 42.9768 20.2257 43.6643 19.2072C44.3572 18.1807 45.1081 17.1873 45.7561 16.3435C45.8837 16.1772 46.0059 16.0187 46.1221 15.8679C46.6163 15.2263 47.0029 14.7245 47.2501 14.3617C47.5711 13.8906 49.7253 10.5409 51.7992 7.2706C52.547 6.09137 53.2796 4.93005 53.9056 3.92797ZM111.037 27.8763C111.036 27.879 111.027 27.8679 111.014 27.8355C111.032 27.8575 111.038 27.8737 111.037 27.8763Z" fill="#A089E5"/>
</svg>
